<?xml version="1.0" encoding="utf-8"?>
<!-- Generator: Adobe Illustrator 21.1.0, SVG Export Plug-In . SVG Version: 6.00 Build 0)  -->
<svg version="1.1" id="Layer_1" xmlns="http://www.w3.org/2000/svg" xmlns:xlink="http://www.w3.org/1999/xlink" x="0px" y="0px"
	 viewBox="0 0 276.2 108" style="enable-background:new 0 0 276.2 108;" xml:space="preserve">
<style type="text/css">
	.st0{fill:#F48E90;}
</style>
<g>
	<g>
		<path class="st0" d="M63.3,99.2c-0.8,0.2-1.1,0.6-1,1.1c0.1,0.7,0.9,0.8,1.9,1c1.2,0.2,2.4,0.5,2.7,1.8c0.3,1.3-0.5,2.5-2.2,2.8
			c-0.5,0.1-1,0.1-1.5,0.1c-0.6-0.1-0.9-0.3-1.1-0.8l-0.2-0.5c-0.2-0.6,0.1-0.9,0.5-1s0.7,0.1,0.9,0.5l0.2,0.4c0.3,0,0.7,0,1-0.1
			c0.8-0.2,1-0.5,0.9-1c-0.1-0.6-0.6-0.7-1.7-0.9c-1.3-0.2-2.6-0.5-2.9-2c-0.3-1.4,0.6-2.6,2.3-3c0.5-0.1,1.2-0.2,1.8-0.1
			c0.6,0.1,0.9,0.3,1.1,0.9l0.1,0.5c0.2,0.6-0.1,0.9-0.5,1s-0.8-0.1-0.9-0.5l-0.2-0.5C64.1,99.1,63.5,99.2,63.3,99.2z"/>
		<path class="st0" d="M59.6,106.1c0,0.4-0.3,0.8-0.8,0.8c-0.4,0-0.7-0.1-0.9-0.4l-2.9-4.4l0,0l0.2,4.3c0,0.4-0.3,0.8-0.7,0.8
			s-0.8-0.3-0.8-0.7l-0.4-6.6c0-0.4,0.3-0.8,0.8-0.8c0.4,0,0.7,0.1,0.9,0.4l2.9,4.3l0,0l-0.2-4.2c0-0.4,0.3-0.8,0.8-0.8
			c0.4,0,0.8,0.3,0.8,0.7L59.6,106.1z"/>
		<path class="st0" d="M49.8,105.8c-0.4,0.9-0.8,1.2-1.6,1.1c-0.9-0.1-1.2-0.5-1.4-1.4l-1-6.1c0-0.1,0-0.2,0-0.3
			c0-0.4,0.4-0.7,0.9-0.7c0.4,0,0.6,0.3,0.7,0.7l0.2,1.4l2.7,0.3l0.5-1.3c0.1-0.3,0.5-0.5,0.8-0.5c0.4,0,0.7,0.5,0.7,0.9
			c0,0.1,0,0.1-0.1,0.2L49.8,105.8z M49.7,102l-2-0.2l0.5,3.6h0.1L49.7,102z"/>
		<path class="st0" d="M44.4,99.5l-0.7-0.2l-1.2,5.1l0.7,0.2c0.4,0.1,0.6,0.5,0.5,0.8c-0.1,0.4-0.5,0.6-0.8,0.5l-3-0.7
			c-0.4-0.1-0.6-0.5-0.5-0.8c0.1-0.4,0.5-0.6,0.8-0.5l0.7,0.2l1.2-5.1l-0.7-0.2c-0.4-0.1-0.6-0.5-0.5-0.8c0.1-0.4,0.5-0.6,0.8-0.5
			l3,0.7c0.4,0.1,0.6,0.5,0.5,0.8C45.2,99.4,44.8,99.6,44.4,99.5z"/>
		<path class="st0" d="M37.6,103.9c-0.1,0.4-0.6,0.6-1,0.5c-0.4-0.2-0.6-0.6-0.5-1l2-5.6l-2.5-0.9c-0.4-0.1-0.6-0.5-0.4-0.9
			c0.1-0.4,0.5-0.6,0.9-0.4l3.2,1.2c0.4,0.2,0.6,0.6,0.5,1L37.6,103.9z"/>
		<path class="st0" d="M28.9,100.4c-0.2,0.4-0.7,0.5-1.1,0.3s-0.5-0.5-0.5-0.9l0.3-4l0,0l-3.4,2.1c-0.3,0.2-0.6,0.2-1,0
			s-0.5-0.7-0.3-1.1l3.5-5.7c0.2-0.4,0.7-0.5,1.1-0.3s0.5,0.7,0.3,1.1l-2.1,3.5h0.1l1.9-1.2c0.3-0.2,0.7-0.2,1,0s0.5,0.5,0.4,0.9
			l-0.2,2.2H29l2.1-3.5c0.2-0.4,0.7-0.5,1.1-0.3c0.4,0.2,0.5,0.7,0.3,1.1L28.9,100.4z"/>
		<path class="st0" d="M20.3,94c-0.8,0.5-1.4,0.5-2,0c-0.6-0.6-0.7-1.1-0.3-1.9l2.6-5.6c0.1-0.1,0.1-0.2,0.1-0.2
			c0.3-0.3,0.8-0.4,1.1-0.1c0.3,0.2,0.3,0.6,0.2,0.9l-0.6,1.3l2,1.8l1.2-0.8c0.3-0.2,0.7-0.2,0.9,0.1c0.3,0.3,0.3,0.8,0.1,1.1
			c0,0.1-0.1,0.1-0.2,0.2L20.3,94z M22.4,90.9l-1.5-1.3l-1.6,3.3l0.1,0.1L22.4,90.9z"/>
		<path class="st0" d="M19.5,85.7L19,85.2l-4,3.5l0.5,0.6c0.3,0.3,0.2,0.7-0.1,1s-0.7,0.2-1-0.1l-2.1-2.3c-0.3-0.3-0.2-0.7,0.1-1
			s0.7-0.2,1,0.1l0.5,0.6l3.9-3.5l-0.5-0.6c-0.3-0.3-0.2-0.7,0.1-1c0.3-0.3,0.7-0.2,1,0.1l2.1,2.3c0.3,0.3,0.2,0.7-0.1,1
			C20.2,86.1,19.7,86,19.5,85.7z"/>
		<path class="st0" d="M11.4,85.4c-0.4,0.3-0.8,0.2-1.1-0.2c-0.3-0.4-0.2-0.9,0.2-1.1l4.9-3.4l-1.5-2.1c-0.2-0.3-0.1-0.8,0.2-1
			s0.8-0.1,1,0.2l1.9,2.8c0.3,0.4,0.2,0.8-0.2,1.1L11.4,85.4z"/>
		<path class="st0" d="M10,76c-0.8,0.4-1.7,0-2.1-0.8s-0.1-1.7,0.7-2.1s1.7,0,2.1,0.8C11.1,74.7,10.8,75.6,10,76z"/>
		<path class="st0" d="M8.5,66c-0.2-0.8-0.7-1.1-1.2-0.9C6.7,65.2,6.6,66,6.5,67c-0.1,1.2-0.3,2.4-1.7,2.8c-1.3,0.4-2.5-0.3-3-2.1
			c-0.1-0.5-0.2-1-0.1-1.5c0.1-0.6,0.3-0.9,0.8-1.1L3,64.9c0.6-0.2,0.9,0,1,0.4c0,0.4-0.1,0.7-0.6,0.9L3,66.4c0,0.3,0,0.7,0.1,1
			c0.2,0.7,0.6,1,1.1,0.9c0.6-0.2,0.6-0.6,0.8-1.7c0.1-1.3,0.4-2.6,1.8-3s2.6,0.5,3.1,2.1c0.1,0.5,0.2,1.2,0.2,1.7
			c0,0.6-0.3,0.9-0.8,1.1l-0.5,0.2c-0.6,0.2-0.9-0.1-1-0.4c-0.1-0.4,0.1-0.8,0.5-0.9l0.5-0.2C8.7,66.8,8.6,66.3,8.5,66z"/>
		<path class="st0" d="M1.5,62.7c-0.4,0-0.8-0.2-0.9-0.8c0-0.4,0.1-0.7,0.4-0.9l4.2-3.2l0,0L1,58.3c-0.4,0.1-0.8-0.3-0.9-0.7
			c0-0.4,0.3-0.8,0.7-0.9L7.4,56c0.4,0,0.8,0.2,0.9,0.8c0,0.4-0.1,0.7-0.4,0.9l-4.1,3.1l0,0l4.1-0.5c0.4,0,0.8,0.3,0.9,0.7
			s-0.3,0.8-0.7,0.9L1.5,62.7z"/>
		<path class="st0" d="M1.2,53C0.3,52.7,0,52.3,0,51.5c0-0.9,0.4-1.2,1.3-1.5l6-1.5c0.1,0,0.2,0,0.3,0c0.4,0,0.8,0.4,0.8,0.8
			c0,0.4-0.3,0.7-0.6,0.7l-1.4,0.3L6.2,53l1.4,0.4c0.3,0.1,0.6,0.4,0.5,0.8c0,0.4-0.4,0.8-0.8,0.8c-0.1,0-0.1,0-0.2,0L1.2,53z
			 M4.9,52.6l0.1-2l-3.6,0.8v0.1L4.9,52.6z"/>
		<path class="st0" d="M7.1,47.2l0.1-0.8L2,45.6l-0.1,0.8C1.8,46.8,1.5,47,1.1,47c-0.4-0.1-0.6-0.4-0.6-0.8L1.1,43
			c0.1-0.4,0.4-0.6,0.8-0.6c0.4,0.1,0.6,0.4,0.6,0.8L2.3,44l5.2,0.9l0.1-0.8c0.1-0.4,0.4-0.6,0.8-0.6C8.8,43.6,9.1,44,9,44.4
			l-0.5,3.1c-0.1,0.4-0.4,0.6-0.8,0.6C7.3,47.9,7,47.6,7.1,47.2z"/>
		<path class="st0" d="M2.3,40.6c-0.4-0.1-0.7-0.5-0.5-1c0.1-0.4,0.6-0.7,1-0.5l5.7,1.7l0.7-2.5c0.1-0.4,0.5-0.6,0.9-0.5
			s0.6,0.5,0.5,0.9l-1,3.3c-0.1,0.4-0.6,0.7-1,0.5L2.3,40.6z"/>
		<path class="st0" d="M5.3,31.7c-0.3-0.2-0.5-0.6-0.3-1s0.5-0.5,0.8-0.5l4,0.1l0,0L7.5,27c-0.2-0.3-0.2-0.6,0-1s0.7-0.5,1.1-0.3
			l5.9,3.1c0.4,0.2,0.5,0.7,0.3,1.1s-0.7,0.5-1.1,0.3l-3.6-1.9v0.1l1.3,1.8c0.2,0.3,0.3,0.7,0.1,1s-0.5,0.5-0.9,0.5l-2.2-0.1v0.1
			l3.6,1.9c0.4,0.2,0.5,0.7,0.3,1.1c-0.2,0.4-0.7,0.5-1.1,0.3L5.3,31.7z"/>
		<path class="st0" d="M11.2,22.8c-0.6-0.8-0.6-1.3-0.1-2s1-0.8,1.9-0.4l5.7,2.3c0.1,0,0.2,0.1,0.2,0.1c0.3,0.3,0.4,0.8,0.1,1.1
			c-0.2,0.3-0.6,0.4-0.9,0.2l-1.3-0.6l-1.6,2.1l0.9,1.1c0.2,0.3,0.2,0.7,0,0.9c-0.3,0.3-0.8,0.4-1.1,0.1c-0.1,0-0.1-0.1-0.2-0.2
			L11.2,22.8z M14.4,24.7l1.2-1.6l-3.4-1.4l-0.1,0.1L14.4,24.7z"/>
		<path class="st0" d="M19.4,21.5l0.5-0.5l-3.7-3.7l-0.5,0.5c-0.3,0.3-0.7,0.3-1,0s-0.3-0.7,0-1l2.2-2.2c0.3-0.3,0.7-0.3,1,0
			s0.3,0.7,0,1l-0.5,0.5l3.7,3.7l0.5-0.5c0.3-0.3,0.7-0.3,1,0s0.3,0.7,0,1l-2.2,2.2c-0.3,0.3-0.7,0.3-1,0S19.1,21.8,19.4,21.5z"/>
		<path class="st0" d="M19.2,13.4C19,13,19,12.5,19.4,12.3c0.4-0.3,0.8-0.2,1.1,0.1l3.7,4.7l2-1.6c0.3-0.2,0.8-0.2,1,0.1
			s0.2,0.8-0.1,1l-2.7,2.1c-0.4,0.3-0.8,0.2-1.1-0.1L19.2,13.4z"/>
		<path class="st0" d="M28.5,11.5c-0.4-0.8-0.1-1.7,0.6-2.1c0.8-0.4,1.7-0.2,2.1,0.6s0.1,1.7-0.6,2.1C29.9,12.5,28.9,12.2,28.5,11.5
			z"/>
		<path class="st0" d="M38.4,9.4c0.8-0.3,1-0.7,0.9-1.2c-0.2-0.7-1-0.7-2-0.8c-1.2-0.1-2.4-0.2-2.9-1.5c-0.4-1.3,0.2-2.5,1.9-3.1
			c0.5-0.2,1-0.3,1.5-0.2c0.6,0,0.9,0.2,1.1,0.7l0.2,0.5c0.3,0.6,0,0.9-0.4,1s-0.7,0-0.9-0.4L37.6,4c-0.3,0-0.7,0.1-0.9,0.2
			c-0.7,0.2-1,0.7-0.8,1.1c0.2,0.5,0.7,0.6,1.8,0.6C39,6,40.3,6.1,40.8,7.5s-0.3,2.7-1.9,3.2c-0.5,0.2-1.2,0.3-1.7,0.3
			c-0.6,0-1-0.2-1.2-0.8l-0.2-0.5c-0.3-0.6,0-0.9,0.4-1s0.8,0,1,0.4l0.2,0.5C37.6,9.6,38.2,9.5,38.4,9.4z"/>
		<path class="st0" d="M41.3,2.1c-0.1-0.4,0.2-0.8,0.7-0.9c0.4-0.1,0.7,0.1,0.9,0.3l3.4,4l0,0l-0.7-4.2c-0.1-0.4,0.2-0.8,0.6-0.9
			C46.6,0.3,47,0.6,47.1,1l1.2,6.6c0.1,0.4-0.2,0.8-0.7,0.9c-0.4,0.1-0.7-0.1-0.9-0.3l-3.4-3.9l0,0L44,8.4c0.1,0.4-0.2,0.8-0.6,0.9
			c-0.4,0.1-0.8-0.2-0.9-0.6L41.3,2.1z"/>
		<path class="st0" d="M51,1.3C51.2,0.4,51.6,0,52.4,0c0.9,0,1.2,0.3,1.5,1.2l1.8,5.9c0,0.1,0,0.2,0,0.2c0,0.4-0.3,0.8-0.8,0.8
			c-0.4,0-0.7-0.2-0.8-0.6l-0.4-1.4L51,6.2l-0.3,1.4c-0.1,0.3-0.4,0.6-0.7,0.6c-0.4,0-0.8-0.4-0.8-0.8c0-0.1,0-0.1,0-0.3L51,1.3z
			 M51.5,5h2l-1-3.5h-0.1L51.5,5z"/>
		<path class="st0" d="M57.1,6.8l0.8,0.1l0.6-5.2l-0.8-0.1c-0.4,0-0.7-0.4-0.6-0.8c0-0.4,0.4-0.7,0.8-0.6L61,0.5
			c0.4,0,0.7,0.4,0.6,0.8c0,0.4-0.4,0.7-0.8,0.6l-0.8,0l-0.6,5.2l0.8,0.1c0.4,0,0.7,0.4,0.6,0.8c0,0.4-0.4,0.7-0.8,0.6l-3-0.4
			c-0.4,0-0.7-0.4-0.6-0.8C56.4,7.1,56.7,6.8,57.1,6.8z"/>
		<path class="st0" d="M63.4,1.7c0.1-0.4,0.5-0.7,0.9-0.6C64.8,1.2,65,1.6,64.9,2l-1.3,5.8l2.5,0.6c0.4,0.1,0.6,0.5,0.5,0.8
			c-0.1,0.4-0.5,0.6-0.8,0.5L62.5,9c-0.4-0.1-0.7-0.5-0.6-0.9L63.4,1.7z"/>
		<path class="st0" d="M72.4,4.2c0.2-0.4,0.6-0.6,1-0.4C73.9,3.9,74,4.2,74,4.6l0.1,4l0,0l3.1-2.5c0.3-0.2,0.6-0.3,1-0.1
			c0.4,0.2,0.6,0.7,0.4,1.1l-2.8,6c-0.2,0.4-0.7,0.6-1,0.4c-0.4-0.2-0.6-0.7-0.4-1l1.7-3.7H76l-1.7,1.4c-0.3,0.2-0.6,0.3-1,0.1
			c-0.3-0.2-0.5-0.5-0.5-0.8l-0.1-2.2h-0.1L70.9,11c-0.2,0.4-0.7,0.6-1.1,0.4c-0.4-0.2-0.6-0.7-0.4-1L72.4,4.2z"/>
		<path class="st0" d="M81.7,9.5c0.7-0.6,1.3-0.6,2-0.2c0.7,0.5,0.8,1,0.5,1.9L82.3,17c0,0.1-0.1,0.2-0.1,0.2
			c-0.2,0.3-0.7,0.4-1.1,0.2c-0.3-0.2-0.4-0.6-0.3-0.9l0.5-1.4L79,13.7l-1.1,0.9c-0.3,0.2-0.6,0.3-0.9,0c-0.4-0.2-0.4-0.7-0.2-1.1
			c0-0.1,0.1-0.1,0.2-0.2L81.7,9.5z M80.1,12.8l1.6,1.1l1.2-3.5l-0.1-0.1L80.1,12.8z"/>
		<path class="st0" d="M83.5,17.6l0.6,0.5l3.5-3.9L87,13.6c-0.3-0.3-0.3-0.7-0.1-1c0.3-0.3,0.7-0.3,1-0.1l2.3,2.1
			c0.3,0.3,0.3,0.7,0.1,1c-0.3,0.3-0.7,0.3-1,0l-0.6-0.5L85.2,19l0.6,0.5c0.3,0.3,0.3,0.7,0.1,1c-0.3,0.3-0.7,0.3-1,0.1l-2.3-2.1
			c-0.3-0.3-0.3-0.7-0.1-1C82.8,17.3,83.2,17.3,83.5,17.6z"/>
		<path class="st0" d="M91.6,17c0.3-0.3,0.8-0.3,1.1,0.1c0.3,0.3,0.3,0.8-0.1,1.1l-4.5,4l1.7,2c0.3,0.3,0.2,0.7-0.1,1
			s-0.7,0.2-1-0.1l-2.3-2.6c-0.3-0.3-0.3-0.8,0.1-1.1L91.6,17z"/>
	</g>
	<g>
		<g>
			<path class="st0" d="M82.2,58.3c0,0.6,0,0.6,0,1.2S82,60.1,82,60.7c0,0.4,0,0.8-0.1,1.2s-0.1,0.8-0.3,1.1
				c-0.2,0.4-0.5,0.6-0.7,0.9s-0.6,0.5-0.9,0.8c-0.3,0.2-0.6,0.6-0.9,0.7c-0.4,0.2-0.7,0.2-1.1,0.3c-0.4,0.1-0.7,0.3-1.1,0.3
				c-0.6,0-0.6-0.2-1.3-0.2c-0.6,0-0.6,0-1.3,0c-0.6,0-0.6,0.2-1.3,0.2c-0.6,0-0.6-0.1-1.3-0.1c-0.6,0-0.6,0.2-1.3,0.1
				c-0.6,0-0.6-0.1-1.3-0.1c-0.6,0-0.6,0-1.3,0c-0.6,0-0.6,0-1.3,0c-0.6,0-0.6,0.1-1.3,0.1c-0.6,0-0.6-0.2-1.3-0.2
				c-0.6,0-0.6-0.1-1.3-0.1c-0.2,0-0.3,0-0.3-0.2c0-0.3,0-0.7,0-1.3c0-0.4-0.1-0.8-0.1-1.3c0-0.4-0.1-0.8-0.1-1.3
				c0-0.4,0.2-0.8,0.2-1.3c0-0.4-0.1-0.9-0.1-1.3c0-0.4-0.1-0.8-0.2-1.3c0-0.4-0.2-0.8-0.3-1.2s-0.1-0.8-0.2-1.2
				c-0.1-0.4,0-0.9-0.1-1.3c-0.1-0.4-0.5-0.7-0.6-1.1c-0.2-0.4-0.3-0.8-0.5-1.2s-0.1-0.9-0.3-1.3c-0.2-0.4-0.7-0.6-0.9-0.9
				c-0.2-0.3-0.4-0.7-0.7-1.1c-0.3-0.3-0.5-0.7-0.8-1s-0.7-0.5-1-0.8s-0.6-0.6-1-0.8s-0.8-0.2-1.2-0.4s-0.8-0.3-1.2-0.4
				c-0.4-0.1-0.7-0.4-1.2-0.5c-0.4-0.1-0.8-0.3-1.2-0.3c-0.4-0.1-0.8-0.1-1.3-0.1c-0.4,0-0.8,0-1.3,0c-0.4,0-0.9-0.1-1.3-0.1
				c-0.4,0-0.8,0.4-1.2,0.5s-0.8,0.1-1.2,0.2c-0.4,0.1-0.7,0.4-1.1,0.6c-0.4,0.2-0.8,0.3-1.1,0.5c-0.4,0.2-0.7,0.5-1,0.8
				s-0.7,0.5-1,0.7c-0.3,0.3-0.5,0.6-0.8,0.9c-0.3,0.3-0.7,0.5-0.9,0.8s-0.4,0.8-0.6,1.1c-0.2,0.4-0.6,0.7-0.7,1
				c-0.2,0.4-0.2,0.8-0.3,1.2s-0.3,0.8-0.3,1.2c-0.1,0.4,0.1,0.8,0.1,1.3c0,0.4-0.2,0.8-0.1,1.2c0,0.4,0,0.8,0.1,1.2
				s0.4,0.7,0.5,1.1c0.1,0.4,0.3,0.8,0.5,1.1c0.2,0.4,0.4,0.7,0.7,1c0.2,0.3,0.4,0.7,0.7,1s0.5,0.7,0.8,0.9s0.7,0.4,1.1,0.6
				c0.4,0.2,0.7,0.5,1.1,0.6c0.4,0.1,0.8,0,1.2,0.1s0.8,0.2,1.2,0.2c0.5,0,0.9-0.2,1.3-0.3c0.4-0.1,0.8-0.2,1.2-0.3s0.9-0.2,1.2-0.4
				c0.4-0.2,0.8-0.5,1.1-0.7c0.3-0.3,0.5-0.7,0.7-1.1c0.3-0.3,0.6-0.6,0.8-1s0.3-0.8,0.5-1.2c0.2-0.5,0.3-0.9,0.3-1.2
				c0-0.5-0.3-0.9-0.4-1.3c-0.1-0.5-0.2-0.9-0.5-1.2c-0.2-0.4-0.4-0.8-0.8-1.1c-0.3-0.3-0.8-0.5-1.2-0.6c-0.4-0.2-0.9-0.3-1.3-0.3
				c-0.5,0-1.1-0.1-1.5,0.1c-0.5,0.2-0.9,0.6-1.2,0.9c-0.4,0.4-0.7,0.8-0.8,1.2s-0.1,0.8-0.1,1.1c-0.1,0.5-0.1,0.9,0.3,0.9
				c0.8,0.1,0.7-0.3,1.2-1c0.2-0.3,0.6-0.4,0.8-0.5c0.2-0.2,0.5-0.4,0.8-0.4c0.5,0,1,0.2,1.4,0.6c0.3,0.3,0.6,0.9,0.6,1.4
				c0,0.4-0.1,0.9-0.3,1.3c-0.2,0.3-0.7,0.5-1,0.8l0.2,0.2c-0.3,0.3-0.7,0.5-1,0.6c-0.3,0.2-0.7,0.4-1.1,0.5
				C45.4,60.9,45,61,44.6,61s-0.8-0.3-1.2-0.4c-0.4-0.1-0.9-0.1-1.3-0.3c-0.4-0.2-0.7-0.6-1-0.9c-0.3-0.3-0.5-0.7-0.7-1.1
				c-0.2-0.4-0.5-0.7-0.7-1.1c-0.1-0.4-0.1-0.8-0.1-1.3c-0.1-0.4-0.1-0.8-0.1-1.3c0-0.4,0-0.9,0.1-1.3c0.1-0.4,0.3-0.8,0.5-1.2
				s0.3-0.8,0.5-1.2s0.5-0.7,0.8-1s0.5-0.7,0.9-1c0.3-0.3,0.7-0.5,1.1-0.7c0.4-0.2,0.8-0.4,1.2-0.6c0.4-0.2,0.8-0.2,1.3-0.3
				c0.4-0.1,0.8-0.1,1.3-0.2c0.4-0.1,0.8-0.3,1.3-0.3c0.4,0,0.8,0.1,1.2,0.1c0.4,0.1,0.8,0.1,1.2,0.2c0.4,0.1,0.7,0.4,1.1,0.6
				c0.4,0.1,0.8,0.2,1.2,0.4s0.8,0.3,1.1,0.5s0.6,0.6,0.9,0.9c0.3,0.3,0.7,0.4,1,0.8c0.3,0.3,0.4,0.7,0.6,1.1c0.2,0.3,0.5,0.6,0.7,1
				s0.4,0.7,0.6,1.1c0.1,0.4,0.2,0.8,0.3,1.2s0.3,0.8,0.4,1.2c0.1,0.4-0.2,0.8-0.1,1.3c0,0.4,0.3,0.8,0.3,1.2s-0.1,0.9-0.1,1.3
				c-0.1,0.4-0.4,0.8-0.5,1.3c-0.1,0.4-0.1,0.9-0.3,1.3c-0.2,0.4-0.4,0.8-0.6,1.2c-0.2,0.4-0.4,0.8-0.6,1.2c-0.3,0.4-0.6,0.7-0.9,1
				c-0.1,0.1-0.3,0.2-0.5,0.4c-0.3,0.3-0.7,0.6-1,0.9c-0.4,0.3-0.8,0.5-1.2,0.7s-0.8,0.4-1.2,0.7c-0.4,0.2-0.8,0.4-1.3,0.5
				c-0.4,0.2-0.8,0.6-1.2,0.7s-0.9,0.1-1.4,0.2c-0.4,0.1-0.9,0.1-1.4,0.1c-0.5,0.1-0.9,0.3-1.3,0.3c-0.5,0-0.9,0-1.4,0
				c-0.4,0-0.8-0.2-1.2-0.2s-0.8-0.1-1.2-0.2s-0.8-0.1-1.2-0.2s-0.8-0.3-1.2-0.4s-0.8-0.3-1.2-0.5s-0.8-0.3-1.2-0.5
				s-0.8-0.3-1.1-0.6c-0.4-0.2-0.7-0.5-1-0.8c-0.3-0.2-0.8-0.4-1.1-0.6c-0.3-0.3-0.6-0.6-0.9-0.9c-0.3-0.3-0.6-0.6-0.8-0.9
				c-0.3-0.3-0.5-0.7-0.7-1s-0.5-0.7-0.7-1s-0.4-0.7-0.6-1.1c-0.2-0.4-0.4-0.7-0.6-1.1c-0.2-0.4-0.5-0.7-0.7-1.1
				c-0.1-0.4-0.2-0.8-0.3-1.2c-0.1-0.4-0.1-0.8-0.2-1.2S28,55.9,28,55.5c-0.1-0.4-0.2-0.8-0.2-1.2s-0.1-0.8-0.1-1.3
				c0-0.4,0.2-0.8,0.2-1.3c0-0.4-0.1-0.9-0.1-1.3c0-0.4,0.2-0.8,0.3-1.2c0.1-0.4,0.3-0.8,0.4-1.2s-0.1-0.9,0-1.3
				c0.1-0.4,0.3-0.8,0.4-1.2s0.2-0.8,0.3-1.2c0.2-0.4,0.5-0.7,0.6-1.1c0.2-0.4,0.3-0.8,0.5-1.1c0.2-0.4,0.5-0.7,0.7-1
				c0.2-0.4,0.4-0.7,0.6-1.1c0.2-0.4,0.3-0.8,0.5-1.2c0.3-0.3,0.7-0.5,1-0.8s0.5-0.7,0.8-1s0.5-0.7,0.8-1s0.7-0.5,1-0.8
				s0.7-0.5,1-0.8s0.6-0.6,0.9-0.8c0.3-0.2,0.8-0.3,1.1-0.6c0.4-0.2,0.6-0.7,0.9-0.9c0.4-0.2,0.7-0.4,1.1-0.6
				c0.4-0.2,0.8-0.3,1.2-0.4c0.4-0.2,0.7-0.4,1.1-0.6c0.4-0.2,0.9-0.1,1.3-0.2c0.4-0.1,0.7-0.4,1.1-0.5c0.4-0.1,0.8-0.1,1.3-0.2
				c0.4-0.1,0.8-0.3,1.2-0.4s0.8-0.2,1.2-0.3c0.4-0.1,0.9,0.1,1.3,0c0.4,0,0.8-0.1,1.2-0.2c0.4,0,0.8,0,1.3,0c0.4,0,0.9-0.1,1.3,0
				c0.4,0,0.9,0,1.3,0c0.4,0,0.9,0,1.3,0.1c0.4,0,0.9,0,1.3,0.1c0.4,0.1,0.8,0.2,1.2,0.3c0.4,0.1,0.9,0.1,1.3,0.2
				c0.4,0.1,0.8,0.3,1.2,0.4s0.8,0.2,1.3,0.3c0.4,0.1,0.8,0.4,1.2,0.5c0.4,0.2,0.7,0.5,1.1,0.6c0.4,0.2,0.8,0.2,1.2,0.4
				c0.4,0.2,0.7,0.5,1.1,0.7s0.8,0.4,1.1,0.6c0.4,0.2,0.7,0.5,1.1,0.7s0.7,0.6,1,0.8c0.3,0.3,0.7,0.5,1,0.8s0.7,0.5,1,0.7
				c0.3,0.3,0.7,0.5,1,0.8s0.5,0.7,0.8,1s0.6,0.6,0.9,0.9c0.3,0.3,0.5,0.6,0.8,1c0.3,0.3,0.4,0.7,0.7,1.1c0.2,0.4,0.7,0.6,0.9,0.9
				c0.2,0.4,0.5,0.7,0.7,1.1c0.2,0.4,0.2,0.8,0.4,1.2c0.2,0.4,0.4,0.8,0.5,1.2c0.2,0.4,0.5,0.7,0.7,1.1c0.1,0.4,0,0.9,0.2,1.3
				c0.1,0.4,0.6,0.7,0.7,1.1c0.1,0.4,0.2,0.8,0.3,1.3c0.1,0.4,0,0.9,0.1,1.3c0.1,0.4,0.2,0.8,0.3,1.2c0.1,0.4,0,0.9,0.1,1.3
				c0,0.4,0.1,0.8,0.1,1.3c0,0.4,0,0.9,0,1.3C82.1,57.5,82.2,57.9,82.2,58.3z"/>
		</g>
		<g>
			<path class="st0" d="M79.3,83.1c0.4,0,0.8,0.1,1.2,0.1c0.4,0,0.8-0.1,1.2-0.1c0.4,0,0.8-0.2,1.2-0.2c0.4-0.1,0.9,0.1,1.3,0
				s0.7-0.5,1.1-0.6s0.9,0,1.3-0.1s0.7-0.4,1.1-0.6s0.7-0.5,1-0.7c0.4-0.2,0.8-0.2,1.2-0.4c0.3-0.2,0.5-0.7,0.9-0.9
				c0.3-0.2,0.8-0.3,1.1-0.6c0.3-0.3,0.5-0.7,0.8-1s0.6-0.5,1-0.8c0.3-0.3,0.7-0.5,1-0.7s0.7-0.5,1-0.7s0.8-0.2,1.2-0.4
				c0.4-0.2,0.7-0.5,1-0.7c0.4-0.2,0.8-0.3,1.2-0.4c0.4-0.2,0.8-0.1,1.2-0.2c0.4-0.1,0.8-0.3,1.2-0.4c0.4-0.1,0.7-0.5,1.1-0.6
				s0.8-0.2,1.2-0.3c0.4-0.1,0.8,0,1.2-0.1c0.4-0.1,0.8,0,1.2-0.1c0.4,0,0.8-0.3,1.2-0.3c0.6,0,0.6,0,1.2,0s0.6,0,1.2,0
				s0.6,0.2,1.2,0.2s0.6,0,1.2,0s0.6,0,1.2,0s0.6,0.2,1.2,0.2s0.6-0.3,1.2-0.3s0.6,0.1,1.2,0.1s0.6,0,1.2,0s0.6,0.3,1.2,0.3
				c0.3,0,0.8-0.3,1.2-0.7c0.3-0.3,0.3-0.7,0.3-1.3c0-0.6,0-1.1-0.3-1.3c-0.4-0.4-1-0.6-1.3-0.6c-0.6,0-0.6,0.2-1.3,0.2
				c-0.6,0-0.6,0-1.3,0c-0.6,0-0.6-0.1-1.3-0.1c-0.6,0-0.6,0.1-1.3,0.1c-0.6,0-0.6-0.2-1.3-0.2c-0.6,0-0.6,0-1.3,0
				c-0.6,0-0.6-0.1-1.3-0.1c-0.6,0-0.6,0-1.3,0c-0.6,0-0.6,0.3-1.3,0.3c-0.6,0-0.6-0.2-1.3-0.2c-0.6,0-0.6,0.1-1.3,0.1
				c-0.6,0-0.6-0.2-1.3-0.2c-0.6,0-0.6,0.3-1.3,0.3s-0.6-0.3-1.3-0.3c-0.4,0-0.8-0.1-1.2-0.2c-0.4-0.1-0.8-0.2-1.1-0.5
				c-0.3-0.3-0.5-0.6-0.7-1c-0.2-0.3-0.5-0.7-0.5-1.1c-0.1-0.4,0-0.8,0-1.2c0.1-0.4,0-0.9,0.1-1.3c0.1-0.4,0.2-0.8,0.3-1.3
				c0-0.4-0.1-0.9-0.1-1.3c0-0.4,0.4-0.8,0.4-1.3c0-0.4-0.2-0.9-0.1-1.3c0-0.4,0-0.9,0-1.3c0-0.4-0.1-0.9-0.1-1.3c0-0.4,0-0.9,0-1.3
				c0-0.4,0.1-0.9,0.1-1.3c0-0.4-0.2-0.8-0.3-1.3c0-0.4-0.1-0.9-0.1-1.3c-0.1-0.4-0.1-0.9-0.2-1.3c-0.1-0.4,0-0.9-0.1-1.3
				c-0.1-0.4-0.2-0.9-0.3-1.2c-0.1-0.4-0.1-0.9-0.2-1.3c-0.1-0.5-0.3-0.8-0.4-1.2c-0.1-0.5,0-0.9-0.1-1.3l-0.1-0.1
				c0,0-0.2,0-0.2-0.1s0-0.3,0-0.4c0-0.1-0.1-0.2-0.2-0.2C95.9,42,95.8,42,95.7,42c0,0,0-0.1-0.1-0.1l-0.1-0.1c-0.1,0,0-0.2-0.1-0.2
				l-0.2,0.1c-0.1,0-0.1,0-0.2,0c0,0,0-0.3-0.1-0.3s-0.1,0.1-0.2,0.1v0.1c-0.1,0-0.2-0.1-0.3-0.1c-0.6,0.1-1.1,0.3-1.3,0.6
				c-0.3,0.5-0.2,1.1-0.1,1.4c0.1,0.4,0.2,0.8,0.3,1.2c0.1,0.4,0.1,0.8,0.2,1.2s0.3,0.8,0.4,1.2s-0.1,0.9-0.1,1.3
				c0.1,0.4,0.2,0.8,0.2,1.2c0.1,0.4,0.2,0.8,0.3,1.2c0.1,0.4,0,0.8,0,1.3c0,0.4,0.2,0.8,0.3,1.2c0,0.4,0,0.8,0,1.3
				c0,0.4,0.1,0.8,0.1,1.2s0,0.8,0,1.2s-0.1,0.8-0.1,1.3c0,0.4,0.1,0.8,0.1,1.3c0,0.4-0.2,0.8-0.2,1.2c0,0.1-0.1,0.3-0.1,0.4
				c0,0.3,0,0.5,0,0.8c0,0.1-0.3,0.2-0.3,0.3c-0.1,0.3,0.1,0.6,0,0.8c0,0.1-0.3,0.2-0.3,0.3c-0.1,0.2-0.2,0.5-0.3,0.7h-0.1
				c-0.1,0.2-0.2,0.4-0.4,0.6c-0.1,0.2-0.1,0.5-0.3,0.7c-0.2,0.2-0.3,0.4-0.5,0.6s-0.6,0.3-0.9,0.5c-0.2,0.1-0.3,0.3-0.4,0.4
				s-0.1,0.3-0.2,0.4s-0.4-0.1-0.5,0c-0.3,0.2-0.7,0.3-1.1,0.4l0.1,0.3c-0.1,0-0.3-0.2-0.5-0.1c-0.3,0.1-0.6,0.5-1,0.5
				c-0.1,0-0.3-0.2-0.4-0.2v0.3c-0.2,0-0.3-0.1-0.5-0.1c-0.1,0-0.1,0-0.2,0v0.1c-0.2,0-0.4-0.2-0.6-0.2v0.1c-0.5,0-0.8,0.3-1,0.3
				c-0.6,0-0.6,0-1.3,0c-0.6,0-0.6-0.2-1.3-0.2c-0.6,0-0.6-0.1-1.3-0.1c-0.6,0-0.6,0.3-1.3,0.3c-0.6,0-0.6,0.1-1.3,0.1
				c-0.6,0-0.6-0.1-1.3-0.1c-0.6,0-0.6,0-1.3,0c-0.6,0-0.6-0.1-1.3-0.1c-0.6,0-0.6,0.1-1.3,0.1c-0.6,0-0.6,0-1.3,0
				c-0.7,0-0.7,0.1-1.3,0.1c-0.6,0-0.6-0.3-1.3-0.3c-0.6,0-0.6,0.2-1.3,0.2c-0.6,0-0.6,0-1.3,0c-0.7,0-0.7,0.1-1.3,0.1
				c-0.7,0-0.7-0.1-1.3-0.1c-0.7,0-0.7,0-1.3,0s-0.7-0.4-1.4-0.2c-0.6,0.2,0.1,0.6,0.1,1.4c0,0.4,0.1,0.8,0.2,1.2
				c0.1,0.4,0.2,0.8,0.3,1.2c0.1,0.4,0.2,0.8,0.4,1.2c0.1,0.4,0.2,0.8,0.4,1.2c0.2,0.4,0.4,0.7,0.6,1.1c0.2,0.4,0.4,0.8,0.6,1.1
				c0.2,0.3,0.4,0.7,0.7,1.1c0.3,0.3,0.7,0.5,1,0.8s0.5,0.6,0.9,0.9c0.3,0.3,0.6,0.6,0.9,0.9c0.3,0.2,0.7,0.5,1.1,0.7
				s0.8,0.3,1.2,0.4c0.4,0.2,0.7,0.4,1.1,0.5s0.8,0.2,1.2,0.3c0.4,0.1,0.8,0.3,1.2,0.4c0.4,0.1,0.9-0.1,1.3,0s0.8,0.3,1.2,0.3
				c0.4,0,0.8,0.2,1.3,0.2C78.4,83.4,78.9,83.1,79.3,83.1z"/>
		</g>
	</g>
	<g>
		<g>
			<path class="st0" d="M275.6,40.5c-0.1,0-0.2,0-0.2,0c-0.6-0.2-0.6-0.2-1.1-0.4c-0.6-0.2-0.6-0.2-1.1-0.4
				c-0.6-0.2-0.6-0.2-1.1-0.4c-0.6-0.2-0.6-0.2-1.1-0.4c-0.6-0.2-0.6-0.1-1.2-0.3s-0.5-0.3-1.1-0.5s-0.6-0.2-1.1-0.4
				c-0.6-0.2-0.6-0.1-1.2-0.3s-0.5-0.3-1.1-0.5s-0.6-0.2-1.1-0.4c-0.4-0.1-0.8-0.2-1.2-0.3c-0.4-0.1-0.8-0.3-1.2-0.4
				c-0.4-0.1-0.8-0.3-1.2-0.4c-0.4-0.1-0.8-0.2-1.3-0.3c-0.4-0.1-0.8-0.2-1.2-0.3c-0.4-0.1-0.8-0.2-1.2-0.3
				c-0.4-0.1-0.8-0.1-1.3-0.2c-0.4-0.1-0.8-0.2-1.2-0.3s-0.8-0.1-1.3-0.2c-0.4-0.1-0.8-0.1-1.3-0.1c-0.4,0-0.8-0.1-1.3-0.1
				c-0.4,0-0.8-0.1-1.3-0.1c-0.4,0-0.9,0-1.3,0c-0.4,0-0.9,0-1.3,0c-0.4,0-0.9,0-1.3,0c-0.4,0-0.8,0-1.3,0c-0.4,0-0.8,0-1.3,0.1
				c-0.4,0-0.8,0.1-1.3,0.1c-0.4,0-0.8,0-1.3,0.1c-0.4,0-0.8,0.1-1.3,0.1c-0.4,0-0.8,0.1-1.3,0.1c-0.4,0.1-0.8,0.2-1.3,0.2
				c-0.4,0.1-0.8,0.1-1.3,0.2c-0.4,0.1-0.8,0.2-1.3,0.2c-0.4,0.1-0.8,0.1-1.3,0.2c-0.4,0.1-0.8,0.2-1.2,0.3s-0.8,0.1-1.3,0.2
				c-0.4,0.1-0.8,0.2-1.2,0.3s-0.8,0.3-1.2,0.4c-0.4,0.1-0.8,0.3-1.2,0.4c-0.4,0.1-0.9,0.1-1.3,0.2c-0.3,0.1-0.3,0.2-0.6,0.3
				c-0.4,0.1-0.8,0.2-1.2,0.3s-0.8,0.2-1.2,0.3s-0.8,0.3-1.2,0.4c-0.4,0.1-0.8,0.1-1.3,0.2c-0.4,0.1-0.8,0.2-1.3,0.3
				c-0.4,0.1-0.8,0.1-1.3,0.2c-0.4,0.1-0.8,0.2-1.2,0.3s-0.9,0-1.3,0.1c-0.4,0.1-0.8,0.1-1.3,0.1c-0.4,0-0.8,0.2-1.3,0.2
				c-0.4,0-0.8,0.1-1.3,0.1c-0.4,0-0.9,0-1.3,0.1c-0.4,0-0.9,0-1.3,0c-0.4,0-0.8,0.1-1.3,0.1c-0.4,0-0.9,0.1-1.3,0.1
				c-0.4,0-0.9-0.1-1.3-0.1c-0.4,0-0.9,0.1-1.3,0.1c-0.4,0-0.8-0.1-1.3-0.1c-0.4,0-0.9,0-1.3-0.1c-0.4,0-0.8-0.1-1.3-0.1
				c-0.4,0-0.8-0.2-1.3-0.2c-0.4,0-0.9,0-1.3-0.1c-0.4-0.1-0.8-0.1-1.3-0.2c-0.4-0.1-0.8-0.2-1.3-0.2c-0.4-0.1-0.9-0.1-1.3-0.1
				c-0.4-0.1-0.8-0.2-1.2-0.3s-0.8-0.1-1.3-0.2c-0.4-0.1-0.8-0.2-1.2-0.3c-0.6-0.1-0.6-0.2-1.1-0.3c-0.6-0.1-0.6-0.1-1.2-0.2
				c-0.6-0.1-0.6-0.1-1.2-0.2c-0.6-0.1-0.6-0.1-1.2-0.2c-0.6-0.1-0.6-0.2-1.1-0.3c-0.4-0.1-0.8-0.3-1.2-0.4
				c-0.4-0.1-0.8-0.2-1.2-0.2c-0.4-0.1-0.8-0.2-1.2-0.3s-0.8-0.1-1.3-0.1c-0.4-0.1-0.8-0.2-1.2-0.3s-0.8-0.1-1.2-0.2
				c-0.4-0.1-0.8-0.1-1.2-0.1c-0.4-0.1-0.8-0.2-1.2-0.2c-0.4-0.1-0.8-0.1-1.2-0.2c-0.4,0-0.8,0-1.3-0.1c-0.4,0-0.8-0.1-1.2-0.2
				c-0.4,0-0.8,0-1.3,0c-0.4,0-0.8-0.1-1.2-0.1s-0.8-0.1-1.3-0.1c-0.4,0-0.8,0-1.3,0c-0.4,0-0.8,0-1.3,0c-0.4,0-0.8-0.1-1.3-0.1
				c-0.4,0-0.8,0-1.3,0c-0.4,0-0.8,0-1.3,0c-0.4,0-0.8,0.1-1.3,0.1c-0.4,0-0.8,0-1.3,0c-0.4,0-0.8,0-1.3,0.1c-0.4,0-0.8,0.1-1.3,0.1
				c-0.4,0-0.8,0.1-1.3,0.1c-0.4,0-0.8,0.2-1.2,0.2s-0.8,0.1-1.2,0.1c-0.4,0.1-0.8,0.1-1.2,0.1c-0.4,0.1-0.8,0.2-1.2,0.2
				c-0.4,0.1-0.8,0-1.3,0.1c-0.4,0.1-0.8,0.2-1.2,0.3s-0.8,0.1-1.2,0.2c-0.4,0.1-0.8,0.2-1.2,0.3s-0.8,0.2-1.2,0.3s-0.8,0.2-1.2,0.3
				s-0.8,0.3-1.2,0.4c-0.6,0.2-0.6,0.1-1.2,0.3c-0.6,0.2-0.6,0.1-1.2,0.2c-0.6,0.2-0.6,0.2-1.2,0.4c-0.6,0.2-0.6,0.1-1.2,0.2
				c-0.6,0.2-0.6,0.3-1.2,0.4c-0.6,0.2-0.6,0-1.2,0.2c-0.6,0.2-0.6,0.2-1.2,0.4s-0.6,0.2-1.2,0.4c-0.4,0.1-0.8,0.1-1.2,0.2
				c-0.4,0.1-0.8,0.2-1.2,0.3c-0.4,0.1-0.8,0.2-1.2,0.2c-0.4,0.1-0.8,0-1.2,0.1c-0.4,0.1-0.8,0.1-1.2,0.1c-0.4,0-0.8,0.1-1.2,0.1
				c-0.4,0-0.8,0-1.2,0c-0.4,0-0.8,0.1-1.2,0.1c-0.4,0-0.8,0-1.2,0c-0.4,0-0.8-0.1-1.2-0.1c-0.4,0-0.8,0-1.2,0
				c-0.4,0-0.8-0.1-1.2-0.1c-0.4,0-0.8-0.1-1.2-0.2c-0.4-0.1-0.8-0.1-1.2-0.2c-0.4-0.1-0.8-0.3-1.2-0.3c-0.4-0.1-0.8-0.1-1.2-0.2
				c-0.4-0.1-0.8-0.3-1.2-0.4c-0.4-0.1-0.8-0.3-1.2-0.4c-0.4-0.1-0.8-0.2-1.2-0.4c-0.4-0.1-0.5-0.5-0.4-0.8c0.1-0.4,0.5-0.6,0.9-0.5
				s0.8,0.3,1.2,0.4c0.4,0.1,0.8,0.2,1.2,0.3c0.4,0.1,0.8,0.3,1.2,0.4c0.4,0.1,0.8,0.1,1.2,0.2c0.4,0.1,0.8,0.2,1.2,0.2
				c0.4,0.1,0.8,0.2,1.2,0.3c0.4,0.1,0.9,0,1.3,0s0.8,0.2,1.3,0.2c0.4,0,0.8,0.1,1.3,0.1c0.4,0,0.8,0,1.3,0c0.4,0,0.8,0,1.3,0
				c0.4,0,0.8-0.1,1.3-0.2c0.4,0,0.8,0,1.3-0.1c0.4,0,0.8-0.1,1.3-0.1c0.4-0.1,0.8-0.1,1.3-0.1c0.4-0.1,0.8-0.1,1.2-0.2
				c0.4-0.1,0.8-0.1,1.3-0.2c0.4-0.1,0.8-0.2,1.2-0.3c0.6-0.2,0.6-0.2,1.2-0.3c0.6-0.2,0.6-0.2,1.2-0.4c0.6-0.2,0.6-0.1,1.2-0.2
				c0.6-0.2,0.6-0.2,1.2-0.4c0.6-0.2,0.6-0.2,1.2-0.4c0.6-0.2,0.6-0.1,1.2-0.2c0.6-0.2,0.6-0.2,1.2-0.4s0.6-0.1,1.2-0.3
				c0.4-0.1,0.8-0.2,1.2-0.3s0.8-0.3,1.2-0.4c0.4-0.1,0.8-0.2,1.2-0.3s0.8-0.2,1.2-0.3s0.9-0.1,1.3-0.1c0.4-0.1,0.8-0.3,1.2-0.3
				c0.4-0.1,0.8-0.1,1.3-0.1c0.4-0.1,0.8-0.1,1.3-0.2c0.4-0.1,0.8-0.1,1.3-0.1c0.4-0.1,0.8-0.2,1.3-0.3c0.4,0,0.8-0.1,1.3-0.1
				c0.4,0,0.8-0.1,1.3-0.1c0.4,0,0.9,0,1.3,0c0.4,0,0.8-0.1,1.3-0.1c0.4,0,0.8-0.1,1.3-0.1c0.4,0,0.8,0,1.3,0c0.4,0,0.8,0.1,1.3,0
				s0.8,0,1.3,0s0.8-0.1,1.3-0.1c0.4,0,0.9,0,1.3,0c0.4,0,0.8,0,1.3,0c0.4,0,0.8,0.1,1.3,0.1c0.4,0,0.8,0.1,1.3,0.1
				c0.4,0,0.9,0,1.3,0.1c0.4,0,0.8,0.1,1.3,0.1c0.4,0,0.8,0.1,1.3,0.1c0.4,0,0.8,0.1,1.3,0.2c0.4,0.1,0.8,0.2,1.3,0.2
				c0.4,0.1,0.9,0,1.3,0.1c0.4,0.1,0.8,0.2,1.2,0.3s0.9,0.1,1.3,0.1c0.4,0.1,0.8,0.2,1.2,0.3s0.8,0.2,1.3,0.2
				c0.4,0.1,0.8,0.1,1.3,0.2c0.4,0.1,0.8,0.3,1.2,0.4c0.6,0.1,0.6,0.2,1.1,0.3c0.6,0.1,0.6,0.1,1.1,0.3c0.6,0.1,0.6,0.1,1.2,0.2
				c0.6,0.1,0.6,0.1,1.2,0.2c0.6,0.1,0.6,0.2,1.1,0.3c0.4,0.1,0.8,0.3,1.2,0.4c0.4,0.1,0.8,0.1,1.3,0.1c0.4,0.1,0.8,0.2,1.2,0.3
				s0.8,0.1,1.2,0.2c0.4,0.1,0.8,0.2,1.2,0.2c0.4,0.1,0.8,0.1,1.2,0.1c0.4,0.1,0.8,0.2,1.2,0.2s0.8,0.1,1.2,0.2c0.4,0,0.8,0,1.3,0
				c0.4,0,0.8,0.1,1.2,0.1s0.8,0.1,1.2,0.1s0.8-0.1,1.3-0.1c0.4,0,0.8,0.1,1.3,0.1c0.4,0,0.8,0,1.3-0.1s0.8,0,1.2-0.1
				c0.4,0,0.8,0,1.3,0c0.4,0,0.8,0,1.2-0.1c0.4,0,0.8-0.2,1.2-0.2s0.8,0,1.2-0.1c0.4,0,0.8-0.2,1.2-0.2c0.4-0.1,0.8-0.1,1.2-0.1
				c0.4-0.1,0.8-0.2,1.2-0.2c0.4-0.1,0.8-0.1,1.2-0.2c0.4-0.1,0.8-0.2,1.2-0.3s0.8-0.1,1.2-0.2c0.4-0.1,0.8-0.2,1.2-0.3
				s0.8-0.2,1.2-0.3s0.8-0.2,1.2-0.3c0.3-0.1,0.3-0.1,0.6-0.2c0.4-0.1,0.8-0.2,1.2-0.3s0.8-0.3,1.2-0.4c0.4-0.1,0.8-0.2,1.2-0.3
				s0.8-0.3,1.2-0.4c0.4-0.1,0.8-0.2,1.2-0.3s0.8-0.1,1.3-0.2c0.4-0.1,0.8-0.2,1.2-0.3s0.8-0.1,1.3-0.2c0.4-0.1,0.8-0.2,1.2-0.3
				s0.8-0.1,1.3-0.2c0.4-0.1,0.8,0,1.3-0.1c0.4,0,0.8-0.2,1.3-0.2c0.4,0,0.8-0.1,1.3-0.1c0.4,0,0.8-0.1,1.3-0.1c0.4,0,0.8,0,1.3,0
				c0.4,0,0.8-0.1,1.3-0.1c0.4,0,0.8,0,1.3,0c0.4,0,0.8,0,1.3,0.1c0.4,0,0.8,0,1.3,0c0.4,0,0.8,0.1,1.3,0.1c0.4,0,0.8,0,1.3,0
				c0.4,0,0.8,0.1,1.3,0.2c0.4,0,0.8,0.1,1.3,0.2c0.4,0.1,0.8,0.1,1.3,0.1c0.4,0.1,0.8,0.1,1.3,0.2c0.4,0.1,0.8,0.2,1.2,0.2
				c0.4,0.1,0.8,0.2,1.2,0.3c0.4,0.1,0.8,0.2,1.2,0.3c0.4,0.1,0.8,0.2,1.2,0.3c0.4,0.1,0.8,0.2,1.2,0.3c0.4,0.1,0.8,0.3,1.2,0.4
				c0.4,0.1,0.8,0.2,1.2,0.4c0.6,0.2,0.6,0.2,1.1,0.4c0.6,0.2,0.6,0.2,1.1,0.4c0.6,0.2,0.6,0.1,1.2,0.3s0.6,0.2,1.1,0.4
				c0.6,0.2,0.5,0.3,1.1,0.5s0.6,0.2,1.1,0.4c0.6,0.2,0.6,0.2,1.1,0.4c0.6,0.2,0.6,0.1,1.2,0.3s0.6,0.2,1.1,0.4
				c0.6,0.2,0.5,0.3,1.1,0.5c0.4,0.1,0.5,0.5,0.4,0.8C276.1,40.3,275.9,40.5,275.6,40.5z"/>
		</g>
		<g>
			<path class="st0" d="M275.6,48.4c-0.1,0-0.2,0.1-0.3,0.1c-0.6-0.2-0.6-0.2-1.1-0.4c-0.6-0.2-0.6-0.2-1.1-0.4
				c-0.6-0.2-0.5-0.3-1.1-0.5s-0.6-0.2-1.1-0.4c-0.6-0.2-0.6-0.2-1.1-0.4c-0.6-0.2-0.6-0.2-1.1-0.4c-0.6-0.2-0.6-0.2-1.1-0.4
				c-0.6-0.2-0.6-0.2-1.1-0.4c-0.6-0.2-0.6-0.2-1.1-0.4c-0.6-0.2-0.6-0.2-1.1-0.4c-0.4-0.1-0.8-0.3-1.2-0.4
				c-0.4-0.1-0.8-0.3-1.2-0.4c-0.4-0.1-0.8-0.1-1.3-0.2c-0.4-0.1-0.8-0.3-1.2-0.4c-0.4-0.1-0.8-0.2-1.2-0.3
				c-0.4-0.1-0.8-0.2-1.2-0.3c-0.4-0.1-0.9-0.1-1.3-0.1c-0.4-0.1-0.8-0.1-1.3-0.2c-0.4-0.1-0.8-0.2-1.3-0.2
				c-0.4-0.1-0.8-0.1-1.3-0.1c-0.4,0-0.8-0.1-1.3-0.1c-0.4,0-0.8,0-1.3-0.1c-0.4,0-0.8-0.1-1.3-0.1c-0.4,0-0.9,0-1.3,0
				c-0.4,0-0.9,0-1.3,0c-0.4,0-0.8,0.1-1.3,0.1c-0.4,0-0.8,0.1-1.3,0.1c-0.4,0-0.8,0-1.3,0.1c-0.4,0-0.8,0-1.3,0.1
				c-0.4,0-0.8,0.1-1.3,0.2c-0.4,0-0.8,0.1-1.3,0.1c-0.4,0.1-0.8,0.1-1.3,0.2c-0.4,0.1-0.8,0.1-1.3,0.2c-0.4,0.1-0.8,0.2-1.3,0.2
				c-0.4,0.1-0.8,0.1-1.3,0.2c-0.4,0.1-0.8,0.2-1.3,0.3c-0.4,0.1-0.8,0.2-1.2,0.3s-0.8,0.2-1.2,0.3s-0.8,0.2-1.2,0.3
				s-0.8,0.2-1.3,0.3s-0.8,0.3-1.2,0.4c-0.3,0.1-0.3,0.1-0.6,0.2c-0.4,0.1-0.8,0.2-1.2,0.3s-0.8,0.2-1.2,0.3s-0.8,0.2-1.2,0.3
				s-0.8,0.1-1.3,0.2c-0.4,0.1-0.8,0.3-1.2,0.4c-0.4,0.1-0.8,0.1-1.3,0.2c-0.4,0.1-0.8,0.1-1.3,0.2c-0.4,0.1-0.8,0.1-1.3,0.2
				c-0.4,0.1-0.8,0.2-1.3,0.2c-0.4,0-0.8,0.1-1.3,0.1c-0.4,0-0.9,0-1.3,0.1c-0.4,0-0.9,0-1.3,0.1c-0.4,0-0.9,0-1.3,0.1
				c-0.4,0-0.8,0.1-1.3,0.1c-0.4,0-0.9,0-1.3,0c-0.4,0-0.9,0-1.3,0c-0.4,0-0.9,0-1.3,0c-0.4,0-0.8-0.1-1.3-0.2c-0.4,0-0.9,0-1.3,0
				c-0.4,0-0.9,0-1.3,0c-0.4,0-0.8-0.2-1.3-0.2c-0.4,0-0.9,0-1.3,0c-0.4-0.1-0.8-0.2-1.3-0.2c-0.4-0.1-0.8-0.1-1.3-0.2
				c-0.4-0.1-0.8-0.2-1.3-0.2c-0.4-0.1-0.8-0.2-1.2-0.3s-0.8-0.1-1.3-0.2c-0.4-0.1-0.8-0.2-1.2-0.3c-0.6-0.1-0.6-0.2-1.1-0.3
				c-0.6-0.1-0.6-0.2-1.1-0.3c-0.6-0.1-0.6-0.1-1.1-0.3c-0.6-0.1-0.6-0.1-1.2-0.2s-0.6-0.2-1.1-0.3c-0.4-0.1-0.8-0.3-1.2-0.4
				c-0.4-0.1-0.8-0.2-1.2-0.3s-0.8-0.1-1.2-0.2c-0.4-0.1-0.8-0.2-1.2-0.3s-0.8-0.1-1.2-0.2c-0.4-0.1-0.8-0.1-1.2-0.2
				c-0.4-0.1-0.8-0.1-1.2-0.2c-0.4-0.1-0.8-0.1-1.2-0.2c-0.4-0.1-0.8,0-1.3-0.1c-0.4,0-0.8-0.1-1.2-0.2c-0.4,0-0.8-0.1-1.3-0.1
				c-0.4,0-0.8-0.1-1.3-0.1c-0.4,0-0.8,0-1.3,0s-0.8-0.1-1.2-0.1s-0.8,0.1-1.3,0.1c-0.4,0-0.8-0.1-1.3-0.1c-0.4,0-0.8,0.1-1.3,0.1
				c-0.4,0-0.8-0.1-1.3-0.1c-0.4,0-0.8,0-1.3,0.1s-0.8,0-1.3,0c-0.4,0-0.8,0-1.3,0.1c-0.4,0-0.8,0.1-1.2,0.2c-0.4,0-0.8,0-1.3,0
				c-0.4,0-0.8,0.2-1.2,0.2s-0.8,0.1-1.2,0.1s-0.8,0-1.3,0.1c-0.4,0.1-0.8,0.1-1.2,0.2c-0.4,0.1-0.8,0.1-1.2,0.2
				c-0.4,0.1-0.8,0.1-1.2,0.2c-0.4,0.1-0.8,0.2-1.2,0.3s-0.8,0.1-1.2,0.2c-0.4,0.1-0.8,0.2-1.2,0.3s-0.8,0.1-1.2,0.2
				c-0.4,0.1-0.8,0.2-1.2,0.3s-0.8,0.1-1.2,0.2c-0.6,0.2-0.6,0.2-1.2,0.3c-0.6,0.2-0.6,0.1-1.2,0.3c-0.6,0.2-0.6,0.2-1.2,0.3
				c-0.6,0.2-0.6,0.2-1.2,0.3c-0.6,0.2-0.6,0.1-1.2,0.3c-0.6,0.2-0.6,0.1-1.2,0.3c-0.6,0.2-0.6,0.2-1.2,0.4
				c-0.6,0.2-0.6,0.1-1.2,0.3c-0.4,0.1-0.8,0.2-1.2,0.3s-0.8,0.1-1.2,0.2c-0.4,0.1-0.8,0.2-1.2,0.3c-0.4,0.1-0.8,0.1-1.2,0.1
				c-0.4,0.1-0.8,0.2-1.2,0.2c-0.4,0-0.8,0.1-1.2,0.1c-0.4,0-0.8,0-1.2,0c-0.4,0-0.8,0-1.2,0c-0.4,0-0.8,0-1.2,0c-0.4,0-0.8,0-1.2,0
				c-0.4,0-0.8-0.1-1.2-0.1c-0.4,0-0.8-0.1-1.2-0.1c-0.4,0-0.8-0.1-1.2-0.1c-0.4-0.1-0.8-0.2-1.2-0.3c-0.4-0.1-0.8-0.2-1.2-0.3
				c-0.4-0.1-0.8-0.1-1.2-0.2c-0.4-0.1-0.8-0.3-1.2-0.4c-0.4-0.1-0.8-0.1-1.2-0.3c-0.4-0.1-0.8-0.3-1.2-0.5
				c-0.4-0.1-0.5-0.5-0.4-0.8c0.1-0.4,0.5-0.6,0.8-0.5c0.4,0.1,0.8,0.3,1.2,0.5c0.4,0.1,0.8,0.3,1.2,0.4c0.4,0.1,0.8,0.1,1.3,0.2
				c0.4,0.1,0.8,0.2,1.2,0.3c0.4,0.1,0.8,0.2,1.2,0.2c0.4,0.1,0.8,0.1,1.3,0.2c0.4,0.1,0.8,0.1,1.3,0.2c0.4,0,0.8,0.2,1.3,0.2
				c0.4,0,0.8,0.1,1.3,0.1c0.4,0,0.8,0,1.3,0c0.4,0,0.8,0,1.3,0c0.4,0,0.8-0.1,1.3-0.2c0.4,0,0.8,0,1.3,0c0.4,0,0.8-0.2,1.3-0.2
				c0.4-0.1,0.8-0.1,1.3-0.1c0.4-0.1,0.8-0.1,1.3-0.2c0.4-0.1,0.8-0.1,1.3-0.2c0.4-0.1,0.8-0.2,1.2-0.3c0.6-0.2,0.6-0.2,1.2-0.3
				c0.6-0.2,0.6-0.1,1.2-0.3c0.6-0.2,0.6-0.1,1.2-0.3c0.6-0.2,0.6-0.2,1.2-0.3c0.6-0.2,0.6-0.1,1.2-0.3c0.6-0.2,0.6-0.2,1.2-0.4
				c0.6-0.2,0.6-0.1,1.2-0.3s0.6-0.2,1.2-0.4c0.4-0.1,0.8-0.2,1.2-0.3s0.8-0.2,1.2-0.3s0.8-0.1,1.3-0.2c0.4-0.1,0.8-0.2,1.2-0.3
				s0.8-0.2,1.3-0.2c0.4-0.1,0.9-0.1,1.3-0.1c0.4-0.1,0.8-0.2,1.2-0.3s0.9,0,1.3-0.1c0.4-0.1,0.8-0.2,1.3-0.2
				c0.4-0.1,0.8-0.1,1.3-0.1c0.4,0,0.8-0.1,1.3-0.2c0.4,0,0.8,0,1.3-0.1c0.4,0,0.8-0.1,1.3-0.1c0.4,0,0.9,0,1.3,0
				c0.4,0,0.8-0.1,1.3-0.1s0.8-0.1,1.3-0.1s0.8,0,1.3,0s0.8,0,1.3,0c0.4,0,0.8,0,1.3,0c0.4,0,0.8,0.1,1.3,0.1c0.4,0,0.8,0,1.3,0
				c0.4,0,0.9-0.1,1.3,0c0.4,0,0.8,0.1,1.3,0.2c0.4,0,0.8,0,1.3,0.1c0.4,0,0.8,0.1,1.3,0.2c0.4,0,0.9,0,1.3,0c0.4,0,0.8,0.1,1.3,0.2
				c0.4,0.1,0.8,0.1,1.3,0.2c0.4,0.1,0.8,0.2,1.3,0.2c0.4,0.1,0.8,0.2,1.3,0.2c0.4,0.1,0.8,0.1,1.3,0.2c0.4,0.1,0.8,0.2,1.2,0.3
				s0.8,0.1,1.3,0.2c0.4,0.1,0.8,0.2,1.2,0.3s0.8,0.1,1.3,0.2c0.6,0.1,0.6,0.2,1.1,0.3c0.6,0.1,0.6,0.2,1.1,0.3
				c0.6,0.1,0.6,0.1,1.2,0.2c0.6,0.1,0.6,0.1,1.2,0.2c0.6,0.1,0.6,0.2,1.1,0.3c0.4,0.1,0.8,0.2,1.2,0.3s0.8,0.2,1.2,0.2
				c0.4,0.1,0.8,0.3,1.2,0.3c0.4,0.1,0.8,0.1,1.2,0.2c0.4,0.1,0.8,0.1,1.2,0.1c0.4,0.1,0.8,0.1,1.2,0.2c0.4,0.1,0.8,0.1,1.2,0.1
				s0.8,0.1,1.2,0.2c0.4,0,0.8,0.1,1.2,0.1s0.8,0,1.3,0c0.4,0,0.8,0,1.2,0s0.8,0.1,1.2,0.1s0.8-0.1,1.3-0.1c0.4,0,0.8,0,1.3,0
				s0.8,0,1.3,0c0.4,0,0.8,0,1.3,0c0.4,0,0.8-0.2,1.2-0.2s0.8-0.1,1.2-0.1s0.8,0,1.2-0.1c0.4,0,0.8-0.1,1.2-0.2
				c0.4-0.1,0.8-0.2,1.2-0.2c0.4-0.1,0.8-0.1,1.2-0.2c0.4-0.1,0.8-0.1,1.2-0.2c0.4-0.1,0.8-0.2,1.2-0.3s0.8-0.2,1.2-0.3
				s0.8-0.2,1.2-0.3s0.8-0.2,1.2-0.3s0.8-0.2,1.2-0.4c0.3-0.1,0.3-0.1,0.6-0.2c0.4-0.1,0.8-0.3,1.2-0.4c0.4-0.1,0.8-0.1,1.3-0.2
				c0.4-0.1,0.8-0.3,1.2-0.4c0.4-0.1,0.8-0.2,1.2-0.3s0.8-0.3,1.2-0.3c0.4-0.1,0.8-0.1,1.3-0.2c0.4-0.1,0.8-0.2,1.2-0.3
				s0.8-0.2,1.2-0.2c0.4-0.1,0.8-0.1,1.3-0.2c0.4-0.1,0.8-0.1,1.3-0.1c0.4-0.1,0.8-0.2,1.2-0.3c0.4,0,0.9,0,1.3,0
				c0.4,0,0.8-0.1,1.3-0.2c0.4,0,0.8-0.1,1.3-0.1c0.4,0,0.8-0.1,1.3-0.1c0.4,0,0.8-0.1,1.3-0.1c0.4,0,0.8,0,1.3,0
				c0.4,0,0.8,0.1,1.3,0.1c0.4,0,0.8-0.1,1.3-0.1c0.4,0,0.8,0.1,1.3,0.1c0.4,0,0.8,0.1,1.3,0.1c0.4,0,0.8,0.1,1.3,0.1
				c0.4,0,0.8,0,1.3,0.1c0.4,0.1,0.8,0.2,1.2,0.2c0.4,0.1,0.8,0.1,1.2,0.2c0.4,0.1,0.8,0.2,1.2,0.3c0.4,0.1,0.8,0.1,1.2,0.2
				c0.4,0.1,0.8,0.1,1.2,0.3c0.4,0.1,0.8,0.3,1.2,0.4c0.4,0.1,0.8,0.1,1.2,0.2c0.4,0.1,0.8,0.4,1.2,0.5c0.4,0.1,0.8,0.2,1.2,0.3
				c0.6,0.2,0.5,0.3,1.1,0.5s0.6,0.1,1.2,0.3s0.6,0.2,1.1,0.4c0.6,0.2,0.5,0.3,1.1,0.5s0.6,0.2,1.1,0.4c0.6,0.2,0.6,0.2,1.1,0.4
				c0.6,0.2,0.6,0.1,1.2,0.3s0.6,0.2,1.1,0.4c0.6,0.2,0.6,0.2,1.1,0.4s0.5,0.3,1.1,0.5c0.4,0.1,0.5,0.5,0.4,0.8
				C276.1,48.3,275.9,48.4,275.6,48.4z"/>
		</g>
		<g>
			<path class="st0" d="M275.6,56.4c-0.1,0-0.2,0-0.2-0.1c-0.6-0.2-0.6-0.2-1.1-0.4c-0.6-0.2-0.5-0.2-1.1-0.4s-0.6-0.2-1.1-0.4
				c-0.6-0.2-0.6-0.2-1.1-0.4c-0.6-0.2-0.6-0.2-1.1-0.4c-0.6-0.2-0.6-0.1-1.1-0.3c-0.6-0.2-0.5-0.3-1.1-0.5s-0.6-0.1-1.2-0.3
				s-0.6-0.2-1.1-0.4c-0.6-0.2-0.6-0.2-1.1-0.4c-0.4-0.1-0.8-0.2-1.2-0.4c-0.4-0.1-0.8-0.3-1.2-0.4c-0.4-0.1-0.8-0.2-1.2-0.3
				c-0.4-0.1-0.8-0.3-1.2-0.4c-0.4-0.1-0.8-0.2-1.3-0.2c-0.4-0.1-0.8-0.2-1.3-0.2c-0.4-0.1-0.8-0.2-1.3-0.3
				c-0.4-0.1-0.8-0.1-1.3-0.2c-0.4-0.1-0.8-0.2-1.3-0.2c-0.4-0.1-0.8-0.1-1.3-0.1c-0.4,0-0.8-0.1-1.3-0.1c-0.4,0-0.8-0.1-1.3-0.2
				c-0.4,0-0.9,0-1.3,0c-0.4,0-0.9,0-1.3,0c-0.4,0-0.9,0-1.3,0c-0.4,0-0.8,0.1-1.3,0.1c-0.4,0-0.8,0-1.3,0c-0.4,0-0.8,0.1-1.3,0.1
				c-0.4,0-0.8,0-1.3,0.1c-0.4,0-0.8,0.1-1.3,0.2c-0.4,0-0.8,0.1-1.3,0.1c-0.4,0.1-0.8,0.2-1.3,0.2c-0.4,0.1-0.8,0.1-1.3,0.2
				c-0.4,0.1-0.8,0.2-1.2,0.2c-0.4,0.1-0.8,0.1-1.3,0.2c-0.4,0.1-0.8,0.2-1.2,0.3s-0.8,0.1-1.3,0.2c-0.4,0.1-0.8,0.3-1.2,0.4
				c-0.4,0.1-0.8,0.2-1.2,0.3s-0.8,0.2-1.2,0.3s-0.8,0.3-1.2,0.4c-0.3,0.1-0.3,0-0.7,0.1s-0.8,0.2-1.2,0.3s-0.8,0.2-1.2,0.3
				s-0.8,0.3-1.2,0.4c-0.4,0.1-0.8,0.1-1.3,0.2c-0.4,0.1-0.8,0.2-1.2,0.3s-0.8,0.1-1.3,0.2c-0.4,0.1-0.8,0.1-1.3,0.1
				c-0.4,0.1-0.8,0.2-1.2,0.3s-0.8,0.1-1.3,0.2c-0.4,0-0.9,0-1.3,0.1c-0.4,0-0.8,0.2-1.3,0.2c-0.4,0-0.9,0.1-1.3,0.1
				c-0.4,0-0.9,0-1.3,0c-0.4,0-0.8,0.1-1.3,0.1c-0.4,0-0.9,0-1.3,0c-0.4,0-0.9,0-1.3,0c-0.4,0-0.8-0.1-1.3-0.1c-0.4,0-0.9,0-1.3,0
				c-0.4,0-0.9-0.1-1.3-0.1c-0.4,0-0.8-0.1-1.3-0.1c-0.4,0-0.8-0.1-1.3-0.1c-0.4,0-0.8-0.1-1.3-0.2c-0.4-0.1-0.8-0.1-1.3-0.2
				c-0.4-0.1-0.8-0.2-1.3-0.2c-0.4-0.1-0.9-0.1-1.3-0.1c-0.4-0.1-0.8-0.2-1.2-0.3s-0.8-0.2-1.3-0.2c-0.4-0.1-0.8-0.2-1.2-0.3
				c-0.6-0.1-0.6-0.1-1.1-0.3c-0.6-0.1-0.6-0.2-1.1-0.3c-0.6-0.1-0.6-0.1-1.1-0.3c-0.6-0.1-0.6-0.1-1.2-0.3
				c-0.6-0.1-0.6-0.2-1.1-0.3c-0.4-0.1-0.8-0.2-1.2-0.3s-0.8-0.1-1.2-0.2c-0.4-0.1-0.8-0.2-1.2-0.3s-0.8-0.1-1.2-0.2
				c-0.4-0.1-0.8-0.2-1.2-0.3s-0.8,0-1.3-0.1c-0.4-0.1-0.8-0.2-1.2-0.2c-0.4-0.1-0.8-0.1-1.2-0.2c-0.4-0.1-0.8-0.1-1.2-0.1
				s-0.8-0.1-1.2-0.1s-0.8-0.1-1.2-0.1s-0.8-0.1-1.3-0.1c-0.4,0-0.8-0.1-1.2-0.1s-0.8,0-1.3,0s-0.8,0-1.3,0c-0.4,0-0.8,0-1.3,0
				c-0.4,0-0.8-0.1-1.3-0.1c-0.4,0-0.8,0.1-1.3,0.1s-0.8,0-1.3,0s-0.8,0.1-1.3,0.1c-0.4,0-0.8,0-1.3,0c-0.4,0-0.8,0-1.3,0
				c-0.4,0-0.8,0.1-1.2,0.1s-0.8,0.1-1.2,0.1s-0.8,0.1-1.2,0.1s-0.8,0.1-1.2,0.1c-0.4,0.1-0.8,0.1-1.2,0.1c-0.4,0.1-0.8,0.1-1.2,0.2
				c-0.4,0.1-0.8,0.1-1.3,0.1c-0.4,0.1-0.8,0.2-1.2,0.3s-0.8,0.1-1.2,0.2c-0.4,0.1-0.8,0.2-1.2,0.3s-0.8,0.2-1.2,0.3
				s-0.8,0.1-1.2,0.2c-0.4,0.1-0.8,0.2-1.2,0.3c-0.6,0.2-0.6,0.2-1.2,0.3c-0.6,0.2-0.6,0.2-1.2,0.3c-0.6,0.2-0.6,0.2-1.2,0.4
				c-0.6,0.2-0.6,0.1-1.2,0.3c-0.6,0.2-0.6,0.1-1.2,0.2c-0.6,0.2-0.6,0.2-1.2,0.4c-0.6,0.2-0.6,0.1-1.2,0.3
				c-0.6,0.2-0.6,0.1-1.2,0.3c-0.4,0.1-0.8,0.2-1.2,0.3s-0.8,0.2-1.2,0.3c-0.4,0.1-0.8,0.1-1.2,0.2c-0.4,0.1-0.8,0.1-1.2,0.2
				c-0.4,0.1-0.8,0.2-1.2,0.2c-0.4,0-0.8,0-1.2,0c-0.4,0-0.8,0.2-1.2,0.2c-0.4,0-0.8,0-1.2,0c-0.4,0-0.8-0.1-1.2-0.1
				c-0.4,0-0.8,0-1.2,0c-0.4,0-0.8,0-1.2,0c-0.4,0-0.8-0.1-1.2-0.2c-0.4,0-0.8-0.1-1.2-0.2c-0.4-0.1-0.8-0.1-1.2-0.2
				c-0.4-0.1-0.8-0.2-1.2-0.3c-0.4-0.1-0.8-0.2-1.2-0.3c-0.4-0.1-0.8-0.2-1.2-0.3c-0.4-0.1-0.8-0.2-1.2-0.3
				c-0.4-0.1-0.8-0.3-1.2-0.4c-0.4-0.1-0.5-0.6-0.4-0.9c0.1-0.4,0.4-0.5,0.8-0.4s0.8,0.3,1.2,0.4c0.4,0.1,0.8,0.2,1.2,0.3
				c0.4,0.1,0.8,0.2,1.2,0.3c0.4,0.1,0.8,0.2,1.2,0.3c0.4,0.1,0.8,0.2,1.2,0.3c0.4,0.1,0.8,0.2,1.2,0.3c0.4,0.1,0.8,0.1,1.3,0.1
				c0.4,0,0.8,0,1.3,0.1c0.4,0,0.8,0.1,1.3,0.1c0.4,0,0.8,0,1.3,0c0.4,0,0.8,0,1.3,0c0.4,0,0.8-0.1,1.3-0.1c0.4,0,0.8-0.1,1.3-0.1
				c0.4,0,0.8-0.1,1.3-0.1c0.4-0.1,0.8-0.1,1.3-0.2c0.4-0.1,0.8-0.2,1.2-0.2c0.4-0.1,0.8-0.2,1.2-0.3c0.4-0.1,0.8-0.1,1.3-0.2
				c0.6-0.2,0.6-0.2,1.2-0.4c0.6-0.2,0.6-0.2,1.2-0.3c0.6-0.2,0.6-0.1,1.2-0.3c0.6-0.2,0.6-0.2,1.2-0.4c0.6-0.2,0.6-0.1,1.2-0.3
				c0.6-0.2,0.6-0.1,1.2-0.3c0.6-0.2,0.6-0.2,1.2-0.3s0.6-0.1,1.2-0.3c0.4-0.1,0.8-0.3,1.2-0.4c0.4-0.1,0.8-0.1,1.3-0.2
				c0.4-0.1,0.8-0.2,1.2-0.3s0.8-0.2,1.2-0.3s0.8-0.2,1.2-0.3s0.8-0.1,1.3-0.1c0.4-0.1,0.8-0.2,1.2-0.3s0.8-0.1,1.3-0.1
				c0.4-0.1,0.8-0.1,1.3-0.2c0.4-0.1,0.8-0.1,1.3-0.1c0.4,0,0.8-0.1,1.3-0.1c0.4,0,0.8-0.1,1.3-0.1c0.4,0,0.8-0.1,1.3-0.1
				c0.4,0,0.8,0,1.3-0.1c0.4,0,0.8-0.1,1.3-0.1c0.4,0,0.8-0.1,1.3-0.1c0.4,0,0.8-0.1,1.3-0.1c0.4,0,0.8,0,1.3,0
				c0.4,0,0.8,0.1,1.3,0.1c0.4,0,0.9-0.1,1.3,0c0.4,0,0.8,0.1,1.3,0.1c0.4,0,0.8,0,1.3,0c0.4,0,0.8,0.1,1.3,0.1c0.4,0,0.8,0,1.3,0.1
				c0.4,0,0.9,0,1.3,0.1c0.4,0,0.8,0.1,1.3,0.2c0.4,0,0.8,0.1,1.3,0.2c0.4,0.1,0.8,0.1,1.3,0.2c0.4,0.1,0.8,0.1,1.3,0.2
				c0.4,0.1,0.8,0.1,1.3,0.2c0.4,0.1,0.8,0.1,1.3,0.2c0.4,0.1,0.8,0.2,1.2,0.3s0.8,0.1,1.3,0.2c0.4,0.1,0.8,0.2,1.2,0.3
				s0.8,0.2,1.2,0.3c0.6,0.1,0.6,0.1,1.1,0.2c0.6,0.1,0.6,0.1,1.1,0.3c0.6,0.1,0.6,0.2,1.1,0.3c0.6,0.1,0.6,0.1,1.1,0.3
				c0.6,0.1,0.6,0,1.2,0.2c0.4,0.1,0.8,0.3,1.2,0.4c0.4,0.1,0.8,0.1,1.2,0.2c0.4,0.1,0.8,0.2,1.2,0.2c0.4,0.1,0.8,0.2,1.2,0.3
				s0.8,0.1,1.2,0.1c0.4,0.1,0.8,0.2,1.2,0.2c0.4,0.1,0.8,0.1,1.2,0.1s0.8,0.1,1.2,0.1s0.8,0,1.3,0.1c0.4,0,0.8,0.1,1.2,0.1
				s0.8,0,1.3,0c0.4,0,0.8,0,1.3,0c0.4,0,0.8,0,1.3,0s0.8,0,1.3,0s0.8,0,1.2-0.1c0.4,0,0.8,0,1.2,0s0.8,0,1.2-0.1
				c0.4,0,0.8,0,1.2-0.1c0.4,0,0.8-0.1,1.2-0.2c0.4,0,0.8-0.1,1.2-0.2c0.4-0.1,0.8-0.1,1.2-0.1c0.4-0.1,0.8-0.1,1.2-0.2
				c0.4-0.1,0.8-0.2,1.2-0.3s0.8-0.2,1.2-0.3s0.8-0.2,1.2-0.3s0.8-0.1,1.2-0.3c0.4-0.1,0.8-0.2,1.2-0.3s0.8-0.1,1.2-0.2
				c0.3-0.1,0.3-0.1,0.6-0.2c0.4-0.1,0.8-0.2,1.2-0.4c0.4-0.1,0.8-0.3,1.2-0.4c0.4-0.1,0.8-0.3,1.2-0.4c0.4-0.1,0.9-0.1,1.3-0.2
				c0.4-0.1,0.8-0.3,1.2-0.4c0.4-0.1,0.9-0.1,1.3-0.2c0.4-0.1,0.8-0.3,1.2-0.4c0.4-0.1,0.8-0.1,1.3-0.1c0.4-0.1,0.8-0.1,1.3-0.2
				c0.4-0.1,0.8-0.2,1.2-0.3s0.8-0.1,1.3-0.1c0.4,0,0.8-0.1,1.3-0.1c0.4,0,0.8,0,1.3,0c0.4,0,0.8-0.1,1.3-0.1c0.4,0,0.8-0.1,1.3-0.1
				c0.4,0,0.8,0,1.3,0c0.4,0,0.8-0.1,1.3-0.1c0.4,0,0.8,0,1.3,0.1c0.4,0,0.8,0,1.3,0c0.4,0,0.8,0,1.3,0c0.4,0,0.8,0.1,1.3,0.2
				c0.4,0,0.8,0,1.3,0c0.4,0,0.8,0.1,1.3,0.2c0.4,0.1,0.8,0.2,1.2,0.3s0.9,0,1.3,0.1s0.8,0.3,1.2,0.4c0.4,0.1,0.8,0.1,1.3,0.2
				c0.4,0.1,0.8,0.3,1.2,0.4c0.4,0.1,0.8,0.2,1.2,0.3c0.4,0.1,0.8,0.2,1.2,0.3c0.4,0.1,0.8,0.2,1.2,0.3c0.4,0.1,0.8,0.2,1.2,0.4
				c0.6,0.2,0.6,0.2,1.1,0.4s0.6,0.1,1.1,0.3c0.6,0.2,0.6,0.2,1.1,0.4c0.6,0.2,0.6,0.2,1.1,0.4c0.6,0.2,0.5,0.3,1.1,0.5
				s0.6,0.2,1.1,0.4c0.6,0.2,0.6,0.2,1.1,0.4c0.6,0.2,0.6,0.1,1.2,0.3s0.6,0.2,1.1,0.4c0.6,0.2,0.5,0.3,1.1,0.5
				c0.4,0.1,0.5,0.5,0.4,0.9C276.1,56.2,275.9,56.4,275.6,56.4z"/>
		</g>
		<g>
			<path class="st0" d="M275.6,64.4c-0.1,0-0.2-0.1-0.2-0.1c-0.6-0.2-0.6-0.2-1.1-0.4c-0.6-0.2-0.6-0.2-1.1-0.4
				c-0.6-0.2-0.6-0.2-1.1-0.4c-0.6-0.2-0.6-0.2-1.1-0.4c-0.6-0.2-0.6-0.2-1.1-0.4c-0.6-0.2-0.6-0.2-1.1-0.4
				c-0.6-0.2-0.6-0.2-1.1-0.4c-0.6-0.2-0.6-0.2-1.2-0.4s-0.6-0.2-1.1-0.4s-0.6-0.2-1.1-0.4c-0.4-0.1-0.8-0.3-1.2-0.5
				c-0.4-0.1-0.8-0.3-1.2-0.4c-0.4-0.1-0.8-0.2-1.2-0.3c-0.4-0.1-0.8-0.2-1.2-0.4c-0.4-0.1-0.9-0.1-1.3-0.2
				c-0.4-0.1-0.8-0.2-1.2-0.3c-0.4-0.1-0.8-0.2-1.2-0.3c-0.4-0.1-0.8-0.1-1.3-0.1c-0.4-0.1-0.8-0.1-1.3-0.2
				c-0.4-0.1-0.8-0.1-1.3-0.1c-0.4,0-0.9,0-1.3-0.1c-0.4,0-0.8-0.1-1.3-0.2c-0.4,0-0.8-0.1-1.3-0.1c-0.4,0-0.9,0-1.3,0
				c-0.4,0-0.9,0-1.3,0.1c-0.4,0-0.8-0.1-1.3-0.1c-0.4,0-0.8,0.2-1.3,0.2c-0.4,0-0.9-0.1-1.3,0c-0.4,0-0.8,0.2-1.3,0.2
				c-0.4,0-0.8,0.1-1.3,0.1c-0.4,0-0.8,0.1-1.3,0.2c-0.4,0.1-0.8,0.1-1.3,0.1c-0.4,0.1-0.8,0.1-1.3,0.2c-0.4,0.1-0.8,0.1-1.3,0.2
				c-0.4,0.1-0.8,0.2-1.2,0.3s-0.8,0.1-1.3,0.2c-0.4,0.1-0.8,0.1-1.3,0.2c-0.4,0.1-0.8,0.2-1.2,0.3s-0.8,0.3-1.2,0.4
				c-0.4,0.1-0.8,0.1-1.3,0.2c-0.4,0.1-0.8,0.2-1.3,0.3c-0.3,0.1-0.3,0.1-0.6,0.2c-0.4,0.1-0.8,0.3-1.2,0.4
				c-0.4,0.1-0.8,0.2-1.2,0.3s-0.8,0.2-1.3,0.3c-0.4,0.1-0.8,0.3-1.2,0.4c-0.4,0.1-0.9,0.1-1.3,0.2c-0.4,0.1-0.8,0.2-1.2,0.3
				s-0.9,0.1-1.3,0.1c-0.4,0.1-0.8,0.2-1.3,0.2c-0.4,0.1-0.8,0.1-1.3,0.1c-0.4,0-0.9,0.1-1.3,0.1c-0.4,0-0.8,0.1-1.3,0.2
				c-0.4,0-0.8,0.1-1.3,0.1c-0.4,0-0.9-0.1-1.3,0c-0.4,0-0.8,0.1-1.3,0.1c-0.4,0-0.9,0-1.3,0c-0.4,0-0.9,0-1.3,0c-0.4,0-0.9,0-1.3,0
				c-0.4,0-0.8-0.1-1.3-0.1c-0.4,0-0.9,0-1.3-0.1c-0.4,0-0.8-0.1-1.3-0.1c-0.4,0-0.8-0.1-1.3-0.1c-0.4,0-0.8-0.1-1.3-0.1
				c-0.4-0.1-0.8-0.1-1.3-0.2c-0.4-0.1-0.8-0.1-1.3-0.2c-0.4-0.1-0.8-0.1-1.3-0.2c-0.4-0.1-0.8-0.2-1.2-0.3s-0.8-0.1-1.3-0.2
				c-0.4-0.1-0.8-0.2-1.2-0.3c-0.6-0.1-0.6-0.1-1.2-0.2c-0.6-0.1-0.6-0.1-1.1-0.3c-0.6-0.1-0.6-0.2-1.1-0.3
				c-0.6-0.1-0.6-0.2-1.1-0.3c-0.6-0.1-0.6-0.1-1.1-0.3c-0.4-0.1-0.8-0.1-1.2-0.2c-0.4-0.1-0.8-0.2-1.2-0.3s-0.8-0.2-1.2-0.3
				s-0.8-0.1-1.2-0.2c-0.4-0.1-0.8-0.2-1.2-0.3s-0.8-0.1-1.2-0.2c-0.4-0.1-0.8-0.1-1.2-0.1c-0.4-0.1-0.8-0.1-1.2-0.2
				c-0.4-0.1-0.8-0.2-1.2-0.2s-0.8-0.1-1.2-0.1s-0.8-0.1-1.3-0.1c-0.4,0-0.8,0-1.3-0.1c-0.4,0-0.8,0-1.3-0.1c-0.4,0-0.8-0.1-1.3-0.1
				s-0.8,0-1.3,0s-0.8,0-1.3,0s-0.8-0.1-1.3-0.1c-0.4,0-0.8,0-1.3,0c-0.4,0-0.8,0.1-1.3,0.1s-0.8,0-1.3,0c-0.4,0-0.8,0.1-1.2,0.1
				s-0.8-0.1-1.3,0c-0.4,0-0.8,0.1-1.2,0.1s-0.8,0.2-1.2,0.2s-0.8,0-1.3,0.1c-0.4,0-0.8,0.1-1.2,0.1c-0.4,0.1-0.8,0.2-1.2,0.2
				c-0.4,0.1-0.8,0.1-1.2,0.2c-0.4,0.1-0.8,0.1-1.2,0.2c-0.4,0.1-0.8,0.2-1.2,0.3s-0.8,0.1-1.2,0.2c-0.4,0.1-0.8,0.2-1.2,0.3
				s-0.8,0.1-1.2,0.2c-0.4,0.1-0.8,0.1-1.2,0.2c-0.4,0.1-0.8,0.2-1.2,0.3c-0.6,0.2-0.6,0.2-1.2,0.4c-0.6,0.2-0.6,0.1-1.2,0.3
				c-0.6,0.2-0.6,0.1-1.2,0.3c-0.6,0.2-0.6,0.2-1.2,0.4c-0.6,0.2-0.6,0.1-1.2,0.3c-0.6,0.2-0.6,0.1-1.2,0.3
				c-0.6,0.2-0.6,0.2-1.2,0.4c-0.6,0.2-0.6,0.1-1.2,0.2c-0.4,0.1-0.8,0.2-1.2,0.3s-0.8,0.2-1.2,0.3c-0.4,0.1-0.8,0.2-1.2,0.2
				c-0.4,0.1-0.8,0.1-1.2,0.2c-0.4,0.1-0.8,0.1-1.2,0.2c-0.4,0-0.8,0.1-1.2,0.2c-0.4,0-0.8,0-1.2,0.1c-0.4,0-0.8-0.1-1.2-0.1
				c-0.4,0-0.8,0.1-1.2,0.1c-0.4,0-0.8-0.1-1.2-0.1c-0.4,0-0.8-0.1-1.2-0.1c-0.4,0-0.8-0.1-1.2-0.2c-0.4,0-0.8,0-1.3,0
				c-0.4-0.1-0.8-0.1-1.2-0.2c-0.4-0.1-0.8-0.2-1.2-0.3c-0.4-0.1-0.8-0.1-1.2-0.2c-0.4-0.1-0.8-0.2-1.2-0.3
				c-0.4-0.1-0.8-0.2-1.2-0.3c-0.4-0.1-0.8-0.3-1.2-0.5c-0.4-0.1-0.6-0.5-0.5-0.8c0.1-0.4,0.6-0.6,0.9-0.5c0.4,0.1,0.8,0.3,1.2,0.5
				c0.4,0.1,0.8,0.2,1.2,0.3c0.4,0.1,0.8,0.3,1.2,0.4c0.4,0.1,0.8,0.2,1.2,0.3c0.4,0.1,0.8,0.2,1.2,0.2c0.4,0.1,0.8,0.1,1.3,0.1
				c0.4,0.1,0.8,0.2,1.3,0.2c0.4,0,0.9,0,1.3,0s0.8,0.2,1.3,0.2c0.4,0,0.8,0,1.3,0c0.4,0,0.8,0,1.3,0c0.4,0,0.8-0.1,1.3-0.1
				c0.4,0,0.8-0.1,1.3-0.2c0.4,0,0.8,0,1.3-0.1c0.4-0.1,0.8-0.1,1.3-0.2c0.4-0.1,0.8-0.2,1.2-0.3c0.4-0.1,0.8-0.2,1.2-0.3
				c0.4-0.1,0.8-0.2,1.2-0.3c0.6-0.2,0.6-0.1,1.2-0.3c0.6-0.2,0.6-0.1,1.2-0.2c0.6-0.2,0.6-0.2,1.2-0.3c0.6-0.2,0.6-0.2,1.2-0.3
				c0.6-0.2,0.6-0.2,1.2-0.3c0.6-0.2,0.6-0.2,1.2-0.3c0.6-0.2,0.6-0.1,1.2-0.3s0.6-0.1,1.2-0.3c0.4-0.1,0.8-0.2,1.2-0.3
				s0.8-0.2,1.2-0.3s0.8-0.1,1.3-0.2c0.4-0.1,0.8-0.2,1.2-0.3s0.8-0.1,1.3-0.2c0.4-0.1,0.8-0.2,1.3-0.2c0.4-0.1,0.8-0.1,1.3-0.2
				c0.4-0.1,0.8-0.2,1.2-0.3s0.9,0,1.3-0.1c0.4-0.1,0.8-0.2,1.3-0.2c0.4,0,0.9,0,1.3-0.1c0.4,0,0.8,0,1.3-0.1c0.4,0,0.8-0.1,1.3-0.1
				c0.4,0,0.8-0.1,1.3-0.1c0.4,0,0.8-0.1,1.3-0.1s0.9,0.1,1.3,0c0.4,0,0.8,0,1.3,0c0.4,0,0.8,0,1.3,0c0.4,0,0.8,0,1.3,0
				c0.4,0,0.8,0,1.3,0c0.4,0,0.8,0,1.3,0.1s0.8,0,1.3,0.1c0.4,0,0.9,0,1.3,0c0.4,0,0.8,0.2,1.3,0.2c0.4,0,0.9,0,1.3,0.1
				c0.4,0,0.8,0,1.3,0.1c0.4,0,0.8,0.1,1.3,0.1c0.4,0.1,0.8,0.1,1.3,0.2c0.4,0.1,0.8,0.2,1.3,0.2c0.4,0.1,0.8,0.1,1.3,0.2
				c0.4,0.1,0.8,0.2,1.2,0.3s0.8,0.1,1.3,0.2c0.4,0.1,0.8,0.1,1.3,0.2c0.4,0.1,0.8,0.2,1.2,0.3s0.8,0.3,1.2,0.4
				c0.6,0.1,0.6,0.1,1.1,0.2c0.6,0.1,0.6,0.1,1.1,0.2c0.6,0.1,0.6,0.2,1.1,0.3c0.6,0.1,0.6,0.2,1.1,0.3c0.6,0.1,0.6,0.1,1.2,0.2
				c0.4,0.1,0.8,0.2,1.2,0.3s0.8,0.2,1.2,0.2c0.4,0.1,0.8,0.2,1.2,0.3s0.8,0,1.3,0.1c0.4,0.1,0.8,0.2,1.2,0.2
				c0.4,0.1,0.8,0.2,1.2,0.2c0.4,0.1,0.8,0.1,1.2,0.1s0.8,0.1,1.2,0.1s0.8,0.2,1.2,0.2s0.8,0,1.3,0c0.4,0,0.8,0,1.3,0
				c0.4,0,0.8,0,1.2,0s0.8,0,1.3,0c0.4,0,0.8,0.1,1.3,0.1c0.4,0,0.8-0.1,1.2-0.1s0.8-0.1,1.2-0.1s0.8-0.1,1.2-0.1s0.8,0,1.3,0
				c0.4,0,0.8-0.1,1.2-0.2c0.4,0,0.8-0.1,1.2-0.1c0.4-0.1,0.8-0.1,1.2-0.1c0.4-0.1,0.8-0.2,1.2-0.3s0.8-0.1,1.2-0.2
				c0.4-0.1,0.8-0.2,1.2-0.2c0.4-0.1,0.8-0.2,1.2-0.3s0.8-0.1,1.2-0.2c0.4-0.1,0.8-0.3,1.2-0.4s0.8-0.2,1.2-0.4
				c0.3-0.1,0.3,0,0.6-0.1c0.4-0.1,0.8-0.2,1.2-0.3s0.8-0.2,1.2-0.3s0.8-0.3,1.2-0.4c0.4-0.1,0.8-0.1,1.3-0.2
				c0.4-0.1,0.8-0.3,1.2-0.4c0.4-0.1,0.8-0.1,1.3-0.2c0.4-0.1,0.8-0.2,1.2-0.3s0.9-0.1,1.3-0.1c0.4-0.1,0.8-0.3,1.2-0.3
				c0.4-0.1,0.9,0,1.3-0.1c0.4-0.1,0.8-0.2,1.2-0.2s0.8-0.2,1.3-0.2c0.4,0,0.8-0.1,1.3-0.1c0.4,0,0.8,0,1.3,0c0.4,0,0.8-0.1,1.3-0.1
				c0.4,0,0.8,0,1.3,0c0.4,0,0.8,0.1,1.3,0.1c0.4,0,0.8,0,1.3,0c0.4,0,0.8,0,1.3,0c0.4,0,0.8-0.1,1.3,0c0.4,0,0.8,0.1,1.3,0.1
				c0.4,0,0.8,0.1,1.3,0.1c0.4,0,0.8,0.1,1.2,0.2c0.4,0.1,0.8,0,1.3,0.1c0.4,0.1,0.8,0.1,1.3,0.2c0.4,0.1,0.8,0.2,1.2,0.3
				c0.4,0.1,0.8,0.2,1.2,0.3c0.4,0.1,0.8,0.2,1.2,0.3c0.4,0.1,0.8,0.2,1.2,0.3c0.4,0.1,0.8,0.2,1.2,0.4c0.4,0.1,0.8,0.2,1.2,0.3
				c0.4,0.1,0.8,0.3,1.2,0.5c0.6,0.2,0.6,0.2,1.1,0.4c0.6,0.2,0.6,0.2,1.1,0.4c0.6,0.2,0.6,0.1,1.1,0.4c0.6,0.2,0.6,0.2,1.1,0.4
				c0.6,0.2,0.5,0.3,1.1,0.5s0.6,0.1,1.2,0.3s0.6,0.2,1.1,0.4c0.6,0.2,0.6,0.2,1.1,0.4c0.6,0.2,0.5,0.3,1.1,0.5s0.6,0.1,1.2,0.3
				c0.4,0.1,0.5,0.5,0.4,0.9C276.1,64.2,275.9,64.4,275.6,64.4z"/>
		</g>
		<g>
			<path class="st0" d="M275.6,72.2c-0.1,0-0.1,0-0.2,0c-0.6-0.2-0.6-0.1-1.2-0.3c-0.6-0.2-0.5-0.3-1.1-0.5s-0.6-0.2-1.1-0.4
				c-0.6-0.2-0.6-0.1-1.2-0.3c-0.6-0.2-0.6-0.2-1.1-0.4c-0.6-0.2-0.6-0.2-1.1-0.4c-0.6-0.2-0.6-0.2-1.1-0.4
				c-0.6-0.2-0.6-0.2-1.1-0.4c-0.6-0.2-0.6-0.2-1.2-0.4s-0.6-0.2-1.1-0.4c-0.4-0.1-0.8-0.3-1.2-0.4c-0.4-0.1-0.8-0.2-1.2-0.4
				c-0.4-0.1-0.8-0.3-1.2-0.4c-0.4-0.1-0.8-0.2-1.2-0.3c-0.4-0.1-0.8-0.2-1.3-0.3c-0.4-0.1-0.8-0.2-1.2-0.3
				c-0.4-0.1-0.8-0.1-1.3-0.2c-0.4-0.1-0.8-0.1-1.3-0.2c-0.4-0.1-0.8-0.1-1.3-0.2c-0.4-0.1-0.8-0.1-1.3-0.1c-0.4,0-0.8-0.1-1.3-0.1
				c-0.4,0-0.8-0.1-1.3-0.1c-0.4,0-0.8,0-1.3-0.1c-0.4,0-0.8,0-1.3,0c-0.4,0-0.9,0-1.3,0c-0.4,0-0.8,0-1.3,0c-0.4,0-0.8,0-1.3,0
				c-0.4,0-0.8,0.1-1.3,0.1c-0.4,0-0.8,0.1-1.3,0.2c-0.4,0-0.8,0.1-1.3,0.2c-0.4,0-0.9,0-1.3,0.1c-0.4,0.1-0.8,0.1-1.3,0.2
				c-0.4,0.1-0.8,0.2-1.3,0.2c-0.4,0.1-0.8,0.1-1.3,0.2c-0.4,0.1-0.8,0.2-1.2,0.3c-0.4,0.1-0.8,0.1-1.3,0.2
				c-0.4,0.1-0.8,0.2-1.2,0.3c-0.4,0.1-0.8,0.2-1.2,0.3c-0.4,0.1-0.8,0.2-1.2,0.3c-0.4,0.1-0.8,0.2-1.2,0.3
				c-0.4,0.1-0.8,0.2-1.3,0.3c-0.3,0.1-0.3,0.1-0.6,0.2c-0.4,0.1-0.8,0.3-1.2,0.4s-0.8,0.1-1.3,0.2c-0.4,0.1-0.8,0.3-1.2,0.4
				s-0.8,0.1-1.3,0.2c-0.4,0.1-0.8,0.2-1.3,0.2c-0.4,0.1-0.8,0.2-1.2,0.3c-0.4,0.1-0.9,0-1.3,0.1c-0.4,0.1-0.8,0.2-1.3,0.2
				c-0.4,0.1-0.8,0.2-1.3,0.2c-0.4,0-0.9,0.1-1.3,0.1c-0.4,0-0.8,0.1-1.3,0.1c-0.4,0-0.9,0-1.3,0c-0.4,0-0.8,0.1-1.3,0.1
				c-0.4,0-0.9,0.1-1.3,0.1c-0.4,0-0.9,0-1.3,0c-0.4,0-0.9,0-1.3,0c-0.4,0-0.9,0-1.3-0.1c-0.4,0-0.9,0-1.3,0c-0.4,0-0.9,0-1.3-0.1
				c-0.4,0-0.8-0.1-1.3-0.2c-0.4,0-0.9,0-1.3-0.1c-0.4,0-0.8-0.1-1.3-0.2c-0.4-0.1-0.8-0.1-1.3-0.1c-0.4-0.1-0.8-0.1-1.3-0.2
				c-0.4-0.1-0.8-0.2-1.3-0.2c-0.4-0.1-0.8-0.2-1.3-0.2c-0.4-0.1-0.8-0.3-1.2-0.4s-0.8-0.1-1.3-0.2c-0.6-0.1-0.6-0.1-1.1-0.3
				c-0.6-0.1-0.6-0.1-1.2-0.2c-0.6-0.1-0.6-0.2-1.1-0.3c-0.6-0.1-0.6-0.1-1.2-0.2c-0.6-0.1-0.6-0.2-1.1-0.3
				c-0.4-0.1-0.8-0.2-1.2-0.3c-0.4-0.1-0.8-0.2-1.2-0.3c-0.4-0.1-0.8-0.2-1.2-0.3c-0.4-0.1-0.8-0.2-1.2-0.2
				c-0.4-0.1-0.8-0.1-1.2-0.2s-0.8-0.1-1.2-0.2s-0.8-0.1-1.2-0.2s-0.8-0.1-1.2-0.2s-0.8-0.2-1.2-0.2s-0.8-0.1-1.2-0.1
				s-0.8-0.1-1.2-0.1s-0.8-0.1-1.3-0.1c-0.4,0-0.8,0-1.3-0.1s-0.8-0.1-1.3-0.1s-0.8,0-1.3,0c-0.4,0-0.8-0.1-1.3-0.1
				c-0.4,0-0.8,0-1.3,0c-0.4,0-0.8,0-1.3,0c-0.4,0-0.8,0.1-1.3,0.1c-0.4,0-0.8,0-1.3,0.1c-0.4,0-0.8,0-1.3,0.1
				c-0.4,0-0.8,0.1-1.3,0.1c-0.4,0-0.8,0-1.3,0.1c-0.4,0-0.8,0-1.3,0c-0.4,0-0.8,0.1-1.2,0.2c-0.4,0-0.8,0.1-1.3,0.1
				c-0.4,0.1-0.8,0.2-1.2,0.2c-0.4,0.1-0.8,0.1-1.2,0.2s-0.8,0.1-1.2,0.2s-0.8,0.2-1.2,0.3c-0.4,0.1-0.8,0.1-1.2,0.2
				s-0.8,0.2-1.2,0.3c-0.4,0.1-0.8,0.1-1.2,0.2s-0.8,0.3-1.2,0.4s-0.8,0.2-1.2,0.3c-0.6,0.2-0.6,0.1-1.2,0.3
				c-0.6,0.2-0.6,0.1-1.2,0.3c-0.6,0.2-0.6,0.1-1.2,0.3c-0.6,0.2-0.6,0.2-1.2,0.4c-0.6,0.2-0.6,0.2-1.2,0.3
				c-0.6,0.2-0.6,0.1-1.2,0.2c-0.6,0.2-0.6,0.2-1.2,0.4s-0.6,0-1.2,0.2c-0.4,0.1-0.7-0.1-0.8-0.5s0.1-0.8,0.5-0.9
				c0.6-0.2,0.6-0.2,1.2-0.3c0.6-0.2,0.6-0.1,1.2-0.2c0.6-0.2,0.6-0.2,1.2-0.3c0.6-0.2,0.6-0.2,1.2-0.4c0.6-0.2,0.6-0.1,1.2-0.2
				c0.6-0.2,0.6-0.2,1.2-0.3c0.6-0.2,0.6-0.1,1.2-0.3s0.6-0.2,1.2-0.4c0.4-0.1,0.8-0.1,1.3-0.2c0.4-0.1,0.8-0.2,1.2-0.3
				c0.4-0.1,0.8-0.2,1.2-0.3c0.4-0.1,0.8-0.2,1.2-0.3c0.4-0.1,0.8-0.2,1.2-0.3c0.4-0.1,0.8-0.1,1.3-0.2c0.4-0.1,0.8-0.1,1.3-0.2
				c0.4-0.1,0.9-0.1,1.3-0.1c0.4-0.1,0.8-0.2,1.2-0.3c0.4-0.1,0.8-0.1,1.3-0.1c0.4,0,0.8-0.1,1.3-0.1c0.4,0,0.9,0,1.3,0
				c0.4,0,0.8-0.1,1.3-0.1c0.4,0,0.8-0.1,1.3-0.1c0.4,0,0.8,0,1.3,0c0.4,0,0.8-0.1,1.3-0.1c0.4,0,0.9,0,1.3,0c0.4,0,0.8,0,1.3,0
				c0.4,0,0.8,0,1.3,0c0.4,0,0.8,0.1,1.3,0.1c0.4,0,0.9,0,1.3,0c0.4,0,0.8,0,1.3,0.1c0.4,0,0.8,0.2,1.3,0.2c0.4,0,0.9,0,1.3,0
				c0.4,0,0.8,0.1,1.3,0.2c0.4,0,0.9,0,1.3,0.1c0.4,0,0.8,0.1,1.3,0.2c0.4,0.1,0.8,0.1,1.3,0.2c0.4,0.1,0.8,0.2,1.2,0.3
				c0.4,0.1,0.8,0.1,1.3,0.2c0.4,0.1,0.8,0.1,1.3,0.2c0.4,0.1,0.8,0.1,1.3,0.2c0.4,0.1,0.8,0.2,1.2,0.3c0.4,0.1,0.8,0.2,1.2,0.3
				c0.4,0.1,0.8,0.2,1.2,0.3c0.6,0.1,0.6,0.1,1.1,0.3c0.6,0.1,0.6,0.1,1.2,0.2c0.6,0.1,0.6,0.2,1.1,0.3c0.6,0.1,0.6,0.1,1.2,0.2
				c0.6,0.1,0.6,0.1,1.1,0.3c0.4,0.1,0.8,0.2,1.2,0.3c0.4,0.1,0.8,0.2,1.2,0.3c0.4,0.1,0.8,0.1,1.2,0.2s0.8,0.1,1.2,0.2
				s0.8,0.1,1.2,0.2s0.8,0.1,1.2,0.2s0.8,0.2,1.2,0.2s0.8,0,1.3,0c0.4,0,0.8,0.1,1.2,0.2c0.4,0,0.8,0,1.3,0c0.4,0,0.8,0,1.2,0
				s0.8,0.1,1.2,0.1s0.8-0.1,1.3-0.1c0.4,0,0.8,0,1.3,0s0.8,0,1.2-0.1c0.4,0,0.8-0.1,1.2-0.1s0.8,0,1.3,0c0.4,0,0.8-0.1,1.2-0.1
				s0.8-0.1,1.2-0.2c0.4,0,0.8,0,1.3-0.1c0.4-0.1,0.8-0.1,1.2-0.2s0.8-0.2,1.2-0.2c0.4-0.1,0.8-0.2,1.2-0.3c0.4-0.1,0.8-0.1,1.2-0.2
				s0.8-0.2,1.2-0.3c0.4-0.1,0.8-0.2,1.2-0.3c0.4-0.1,0.8-0.3,1.2-0.4s0.8-0.2,1.2-0.3c0.3-0.1,0.3,0,0.7-0.1s0.8-0.3,1.2-0.4
				s0.8-0.2,1.2-0.3c0.4-0.1,0.8-0.2,1.2-0.3c0.4-0.1,0.8-0.2,1.2-0.3c0.4-0.1,0.8-0.2,1.2-0.3c0.4-0.1,0.8-0.1,1.3-0.2
				c0.4-0.1,0.8-0.2,1.2-0.3c0.4-0.1,0.8-0.2,1.2-0.2c0.4-0.1,0.8-0.2,1.2-0.3c0.4-0.1,0.8-0.1,1.3-0.1c0.4-0.1,0.8-0.1,1.3-0.1
				c0.4,0,0.8-0.2,1.3-0.2c0.4,0,0.8-0.1,1.3-0.1c0.4,0,0.8-0.1,1.3-0.1c0.4,0,0.8,0,1.3,0c0.4,0,0.8,0,1.3,0c0.4,0,0.8,0,1.3,0
				c0.4,0,0.8-0.1,1.3,0c0.4,0,0.8,0.1,1.3,0.1c0.4,0,0.8,0,1.3,0c0.4,0,0.8,0,1.3,0.1c0.4,0,0.8,0.2,1.2,0.2s0.8,0,1.3,0.1
				c0.4,0.1,0.8,0.1,1.2,0.2s0.8,0.1,1.2,0.2s0.8,0.2,1.2,0.3c0.4,0.1,0.8,0.1,1.2,0.2c0.4,0.1,0.8,0.2,1.2,0.3
				c0.4,0.1,0.8,0.2,1.2,0.3c0.4,0.1,0.8,0.2,1.2,0.4c0.4,0.1,0.8,0.3,1.2,0.4c0.4,0.1,0.8,0.2,1.2,0.4c0.6,0.2,0.6,0.2,1.1,0.4
				s0.5,0.3,1.1,0.5s0.6,0.2,1.1,0.4c0.6,0.2,0.6,0.2,1.1,0.4c0.6,0.2,0.6,0.2,1.1,0.4c0.6,0.2,0.5,0.3,1.1,0.5s0.6,0.2,1.1,0.4
				c0.6,0.2,0.6,0.2,1.1,0.4c0.6,0.2,0.5,0.3,1.1,0.5s0.6,0.2,1.1,0.4c0.4,0.1,0.5,0.5,0.4,0.8C276.1,72.1,275.9,72.2,275.6,72.2z"
				/>
		</g>
		<g>
			<path class="st0" d="M275.6,80.2c-0.1,0-0.2,0.1-0.2,0c-0.6-0.2-0.5-0.3-1.1-0.5s-0.6-0.2-1.1-0.4c-0.6-0.2-0.6-0.2-1.1-0.4
				c-0.6-0.2-0.6-0.2-1.1-0.4c-0.6-0.2-0.6-0.1-1.2-0.3c-0.6-0.2-0.5-0.3-1.1-0.5s-0.6-0.2-1.1-0.4c-0.6-0.2-0.6-0.2-1.1-0.4
				c-0.6-0.2-0.6-0.2-1.1-0.4c-0.6-0.2-0.6-0.3-1.1-0.5c-0.4-0.1-0.8-0.2-1.2-0.3c-0.4-0.1-0.8-0.3-1.2-0.4
				c-0.4-0.1-0.8-0.2-1.2-0.3c-0.4-0.1-0.8-0.3-1.2-0.4c-0.4-0.1-0.8-0.1-1.3-0.2c-0.4-0.1-0.8-0.2-1.2-0.3
				c-0.4-0.1-0.8-0.2-1.3-0.3c-0.4-0.1-0.8-0.2-1.3-0.2c-0.4-0.1-0.8-0.1-1.3-0.2c-0.4-0.1-0.9,0-1.3-0.1c-0.4,0-0.8-0.2-1.3-0.2
				c-0.4,0-0.8-0.1-1.3-0.1c-0.4,0-0.9,0-1.3,0c-0.4,0-0.9,0-1.3,0c-0.4,0-0.9,0-1.3,0c-0.4,0-0.8,0-1.3,0c-0.4,0-0.8,0.1-1.3,0.1
				c-0.4,0-0.8,0-1.3,0c-0.4,0-0.8,0.1-1.3,0.1c-0.4,0-0.9,0-1.3,0.1c-0.4,0-0.8,0.1-1.3,0.1c-0.4,0.1-0.8,0.2-1.3,0.2
				c-0.4,0.1-0.8,0.1-1.3,0.2c-0.4,0.1-0.8,0.1-1.3,0.2c-0.4,0.1-0.8,0.2-1.3,0.2c-0.4,0.1-0.8,0.3-1.2,0.3
				c-0.4,0.1-0.8,0.1-1.3,0.2c-0.4,0.1-0.8,0.2-1.2,0.3c-0.4,0.1-0.8,0.3-1.2,0.4s-0.8,0.2-1.2,0.3c-0.4,0.1-0.8,0.2-1.2,0.3
				c-0.3,0.1-0.3,0.1-0.6,0.2c-0.4,0.1-0.8,0.3-1.2,0.4s-0.8,0.1-1.3,0.2c-0.4,0.1-0.8,0.2-1.2,0.3c-0.4,0.1-0.8,0.2-1.2,0.3
				c-0.4,0.1-0.8,0.2-1.2,0.3c-0.4,0.1-0.8,0.2-1.3,0.2c-0.4,0.1-0.8,0.1-1.3,0.2c-0.4,0.1-0.8,0.2-1.3,0.2
				c-0.4,0.1-0.8,0.1-1.3,0.2c-0.4,0-0.8,0.1-1.3,0.1c-0.4,0-0.9,0-1.3,0c-0.4,0-0.8,0.1-1.3,0.1c-0.4,0-0.9,0-1.3,0
				c-0.4,0-0.9,0-1.3,0s-0.9,0.1-1.3,0.1c-0.4,0-0.9,0-1.3,0c-0.4,0-0.9,0-1.3,0c-0.4,0-0.8-0.1-1.3-0.1c-0.4,0-0.8-0.1-1.3-0.1
				c-0.4,0-0.9,0-1.3,0c-0.4,0-0.8-0.1-1.3-0.1c-0.4,0-0.8-0.2-1.3-0.2c-0.4-0.1-0.8-0.1-1.3-0.1c-0.4-0.1-0.9-0.1-1.3-0.1
				c-0.4-0.1-0.8-0.2-1.2-0.3c-0.4-0.1-0.8-0.1-1.3-0.2c-0.4-0.1-0.8-0.1-1.3-0.2c-0.4-0.1-0.8-0.3-1.2-0.4
				c-0.6-0.1-0.6-0.1-1.1-0.3c-0.6-0.1-0.6,0-1.2-0.2c-0.6-0.1-0.6-0.2-1.1-0.3c-0.6-0.1-0.6-0.2-1.1-0.3c-0.6-0.1-0.6-0.1-1.2-0.2
				c-0.4-0.1-0.8-0.2-1.2-0.3c-0.4-0.1-0.8-0.2-1.2-0.3c-0.4-0.1-0.8-0.1-1.2-0.2s-0.8-0.1-1.2-0.2s-0.8-0.2-1.2-0.3
				c-0.4-0.1-0.8,0-1.3-0.1c-0.4-0.1-0.8-0.2-1.2-0.2c-0.4-0.1-0.8-0.1-1.2-0.1c-0.4-0.1-0.8-0.1-1.2-0.2c-0.4,0-0.8-0.1-1.2-0.1
				s-0.8-0.1-1.2-0.2c-0.4,0-0.8,0-1.3,0c-0.4,0-0.8,0-1.3,0c-0.4,0-0.8-0.1-1.2-0.1s-0.8,0-1.3,0c-0.4,0-0.8-0.1-1.3-0.1
				c-0.4,0-0.8,0-1.3,0c-0.4,0-0.8,0-1.3,0s-0.8,0-1.3,0.1c-0.4,0-0.8,0-1.3,0c-0.4,0-0.8,0.1-1.2,0.1s-0.8,0-1.3,0.1
				c-0.4,0-0.8,0-1.3,0c-0.4,0-0.8,0.2-1.2,0.2s-0.8,0.1-1.2,0.1s-0.8,0-1.3,0c-0.4,0.1-0.8,0.1-1.2,0.2s-0.8,0.2-1.2,0.2
				c-0.4,0.1-0.8,0.1-1.2,0.1c-0.4,0.1-0.8,0.3-1.2,0.3c-0.4,0.1-0.8,0.1-1.2,0.2s-0.8,0.2-1.2,0.3c-0.4,0.1-0.8,0.1-1.2,0.2
				s-0.8,0.3-1.2,0.4s-0.8,0.1-1.2,0.2c-0.6,0.2-0.6,0.2-1.2,0.3c-0.6,0.2-0.6,0.1-1.2,0.3c-0.6,0.2-0.6,0.2-1.2,0.4
				c-0.6,0.2-0.6,0.1-1.2,0.3c-0.6,0.2-0.6,0.2-1.2,0.4c-0.6,0.2-0.6,0.1-1.2,0.2c-0.6,0.2-0.6,0.2-1.2,0.4s-0.6,0.1-1.2,0.3
				c-0.4,0.1-0.8,0.3-1.3,0.4c-0.4,0.1-0.9,0.1-1.3,0.2s-0.9,0.2-1.3,0.3c-0.4,0.1-0.9,0.2-1.3,0.2c-0.4,0.1-0.9,0-1.3,0
				s-0.9,0.1-1.3,0.1s-0.9,0.1-1.3,0.1s-0.9,0-1.3,0s-0.9,0-1.3,0s-0.9-0.1-1.3-0.1s-0.9-0.1-1.3-0.2c-0.4,0-0.9,0-1.3-0.1
				s-0.6-0.4-0.6-0.8c0.1-0.4,0.4-0.7,0.8-0.6s0.8,0.1,1.3,0.2c0.4,0,0.8,0.1,1.3,0.1c0.4,0,0.8,0.1,1.3,0.1c0.4,0,0.8,0.1,1.3,0.1
				c0.4,0,0.8,0,1.3,0c0.4,0,0.8,0,1.3-0.1c0.4,0,0.8-0.1,1.3-0.2c0.4,0,0.8-0.1,1.3-0.2c0.4-0.1,0.8,0,1.3-0.1
				c0.4-0.1,0.8-0.2,1.2-0.2c0.4-0.1,0.8-0.2,1.2-0.3c0.4-0.1,0.8-0.2,1.2-0.3c0.6-0.2,0.6-0.1,1.2-0.3c0.6-0.2,0.6-0.1,1.2-0.2
				c0.6-0.2,0.6-0.2,1.2-0.3c0.6-0.2,0.6-0.2,1.2-0.3c0.6-0.2,0.6-0.2,1.2-0.4c0.6-0.2,0.6-0.1,1.2-0.3c0.6-0.2,0.6-0.1,1.2-0.3
				s0.6-0.2,1.2-0.3c0.4-0.1,0.8-0.2,1.2-0.3c0.4-0.1,0.8-0.2,1.2-0.3c0.4-0.1,0.8-0.2,1.3-0.2c0.4-0.1,0.8-0.2,1.2-0.3
				c0.4-0.1,0.8-0.2,1.2-0.3c0.4-0.1,0.8-0.1,1.3-0.2c0.4-0.1,0.8-0.1,1.3-0.1c0.4-0.1,0.8-0.2,1.3-0.2c0.4-0.1,0.8-0.2,1.3-0.2
				c0.4-0.1,0.9,0,1.3-0.1c0.4,0,0.8-0.2,1.3-0.2c0.4,0,0.8-0.1,1.3-0.1c0.4,0,0.8-0.1,1.3-0.1c0.4,0,0.9,0,1.3,0
				c0.4,0,0.8,0,1.3-0.1c0.4,0,0.8,0,1.3,0c0.4,0,0.8-0.1,1.3-0.1c0.4,0,0.8,0,1.3,0c0.4,0,0.8,0,1.3,0c0.4,0,0.8,0,1.3,0
				c0.4,0,0.9,0,1.3,0c0.4,0,0.8,0.1,1.3,0.1c0.4,0,0.8,0,1.3,0c0.4,0,0.8,0,1.3,0.1c0.4,0,0.8,0.1,1.3,0.2c0.4,0,0.9,0,1.3,0.1
				c0.4,0,0.8,0.2,1.3,0.2c0.4,0.1,0.8,0.1,1.3,0.1c0.4,0.1,0.8,0.1,1.3,0.2c0.4,0.1,0.8,0.1,1.3,0.2c0.4,0.1,0.8,0.2,1.2,0.3
				c0.4,0.1,0.8,0.1,1.3,0.2c0.4,0.1,0.8,0.2,1.2,0.3c0.4,0.1,0.8,0.2,1.2,0.3c0.4,0.1,0.8,0.1,1.3,0.2c0.6,0.1,0.6,0.1,1.1,0.2
				c0.6,0.1,0.6,0.2,1.1,0.3c0.6,0.1,0.6,0.2,1.1,0.4c0.6,0.1,0.6,0.1,1.2,0.2c0.6,0.1,0.6,0.1,1.1,0.3c0.4,0.1,0.8,0.2,1.2,0.3
				c0.4,0.1,0.8,0.1,1.2,0.2s0.8,0.2,1.2,0.3c0.4,0.1,0.8,0.2,1.2,0.3c0.4,0.1,0.8,0.1,1.2,0.2s0.8,0,1.3,0.1
				c0.4,0.1,0.8,0.2,1.2,0.3c0.4,0,0.8,0,1.3,0c0.4,0,0.8,0.1,1.2,0.1s0.8,0,1.3,0c0.4,0,0.8,0.1,1.2,0.1s0.8,0,1.3,0
				c0.4,0,0.8,0,1.3,0c0.4,0,0.8,0.1,1.3,0.1s0.8-0.1,1.2-0.1s0.8-0.1,1.2-0.1s0.8,0,1.2-0.1c0.4,0,0.8,0,1.3,0
				c0.4,0,0.8-0.2,1.2-0.2s0.8,0,1.3-0.1c0.4-0.1,0.8-0.1,1.2-0.2s0.8-0.2,1.2-0.3c0.4-0.1,0.8-0.1,1.2-0.1c0.4-0.1,0.8-0.3,1.2-0.3
				c0.4-0.1,0.8-0.2,1.2-0.3c0.4-0.1,0.8-0.2,1.2-0.3c0.4-0.1,0.8-0.2,1.2-0.3c0.4-0.1,0.8-0.1,1.2-0.2c0.3-0.1,0.3-0.1,0.6-0.2
				c0.4-0.1,0.8-0.2,1.2-0.3c0.4-0.1,0.8-0.2,1.2-0.3c0.4-0.1,0.8-0.3,1.2-0.4s0.8-0.1,1.3-0.2c0.4-0.1,0.8-0.3,1.2-0.4
				s0.8-0.1,1.3-0.2c0.4-0.1,0.8-0.2,1.2-0.3c0.4-0.1,0.8-0.1,1.3-0.2c0.4-0.1,0.8-0.2,1.2-0.3c0.4-0.1,0.8-0.1,1.3-0.1
				c0.4-0.1,0.8-0.1,1.3-0.1c0.4,0,0.8-0.2,1.3-0.2c0.4,0,0.8-0.1,1.3-0.1c0.4,0,0.8,0,1.3,0c0.4,0,0.8-0.1,1.3-0.2
				c0.4,0,0.8,0,1.3,0c0.4,0,0.8,0,1.3,0c0.4,0,0.8,0.1,1.3,0.1c0.4,0,0.8-0.1,1.3-0.1c0.4,0,0.8,0.1,1.3,0.1c0.4,0,0.8,0.2,1.3,0.2
				c0.4,0,0.8,0,1.3,0.1c0.4,0,0.8,0.1,1.3,0.1c0.4,0.1,0.8,0.1,1.3,0.2c0.4,0.1,0.8,0.1,1.2,0.2c0.4,0.1,0.8,0.1,1.2,0.2
				c0.4,0.1,0.8,0.2,1.2,0.3c0.4,0.1,0.8,0.2,1.2,0.3c0.4,0.1,0.8,0.2,1.2,0.3c0.4,0.1,0.8,0.3,1.2,0.4c0.4,0.1,0.8,0.2,1.2,0.4
				c0.4,0.1,0.8,0.2,1.2,0.3c0.6,0.2,0.5,0.3,1.1,0.5s0.6,0.1,1.2,0.3c0.6,0.2,0.6,0.2,1.1,0.4c0.6,0.2,0.6,0.2,1.1,0.4
				c0.6,0.2,0.6,0.2,1.1,0.4c0.6,0.2,0.6,0.2,1.1,0.4c0.6,0.2,0.5,0.3,1.1,0.5s0.6,0.2,1.1,0.4c0.6,0.2,0.6,0.1,1.2,0.3
				c0.6,0.2,0.5,0.3,1.1,0.5c0.4,0.1,0.6,0.5,0.5,0.9C276.1,80,275.9,80.2,275.6,80.2z"/>
		</g>
		<g>
			<path class="st0" d="M275.6,88.1c-0.1,0-0.2,0-0.2,0c-0.6-0.2-0.6-0.2-1.1-0.4c-0.6-0.2-0.5-0.2-1.1-0.4
				c-0.6-0.2-0.6-0.2-1.1-0.4c-0.6-0.2-0.6-0.1-1.1-0.3c-0.6-0.2-0.6-0.2-1.1-0.4c-0.6-0.2-0.6-0.2-1.1-0.4
				c-0.6-0.2-0.6-0.2-1.1-0.4c-0.6-0.2-0.6-0.2-1.1-0.4c-0.6-0.2-0.6-0.1-1.2-0.3c-0.6-0.2-0.6-0.2-1.1-0.4
				c-0.4-0.1-0.8-0.4-1.2-0.5c-0.4-0.1-0.8-0.3-1.2-0.4c-0.4-0.1-0.8-0.2-1.2-0.3c-0.4-0.1-0.8-0.2-1.2-0.3
				c-0.4-0.1-0.8-0.2-1.3-0.3c-0.4-0.1-0.8-0.2-1.2-0.3c-0.4-0.1-0.9-0.1-1.3-0.1c-0.4-0.1-0.8-0.2-1.3-0.2
				c-0.4-0.1-0.8-0.1-1.3-0.2c-0.4-0.1-0.8-0.1-1.3-0.1c-0.4,0-0.8-0.1-1.3-0.1c-0.4,0-0.8-0.1-1.3-0.1c-0.4,0-0.9,0-1.3,0
				c-0.4,0-0.9,0-1.3,0c-0.4,0-0.8,0-1.3,0c-0.4,0-0.8-0.1-1.3-0.1c-0.4,0-0.8,0-1.3,0.1c-0.4,0-0.8,0.1-1.3,0.2
				c-0.4,0-0.8,0-1.3,0.1c-0.4,0-0.8,0.1-1.3,0.2c-0.4,0-0.9,0-1.3,0.1c-0.4,0.1-0.8,0.1-1.3,0.2c-0.4,0.1-0.8,0.1-1.3,0.2
				c-0.4,0.1-0.8,0.1-1.3,0.2c-0.4,0.1-0.8,0.2-1.2,0.3c-0.4,0.1-0.8,0.1-1.3,0.2c-0.4,0.1-0.8,0.3-1.2,0.4s-0.8,0.1-1.3,0.2
				c-0.4,0.1-0.8,0.3-1.2,0.4s-0.8,0.2-1.3,0.3c-0.4,0.1-0.8,0.3-1.2,0.4c-0.3,0.1-0.3,0.1-0.6,0.2c-0.4,0.1-0.8,0.2-1.2,0.3
				c-0.4,0.1-0.8,0.3-1.2,0.4s-0.8,0.1-1.3,0.2c-0.4,0.1-0.8,0.2-1.2,0.3c-0.4,0.1-0.8,0.2-1.3,0.2c-0.4,0.1-0.8,0.2-1.2,0.3
				c-0.4,0.1-0.8,0.1-1.3,0.2c-0.4,0.1-0.8,0.2-1.3,0.2c-0.4,0.1-0.9,0-1.3,0.1c-0.4,0-0.8,0.2-1.3,0.2c-0.4,0-0.9,0-1.3,0
				c-0.4,0-0.8,0.1-1.3,0.2c-0.4,0-0.9,0-1.3,0c-0.4,0-0.9,0-1.3,0s-0.9,0-1.3,0c-0.4,0-0.9,0.1-1.3,0.1c-0.4,0-0.8-0.1-1.3-0.1
				c-0.4,0-0.9,0-1.3,0c-0.4,0-0.8-0.1-1.3-0.1c-0.4,0-0.9,0-1.3-0.1c-0.4,0-0.8-0.1-1.3-0.1c-0.4,0-0.8-0.1-1.3-0.2
				c-0.4-0.1-0.8-0.1-1.3-0.2c-0.4-0.1-0.8-0.1-1.3-0.2c-0.4-0.1-0.8-0.2-1.3-0.2c-0.4-0.1-0.9-0.1-1.3-0.1
				c-0.4-0.1-0.8-0.2-1.2-0.3c-0.4-0.1-0.8-0.1-1.3-0.2c-0.6-0.1-0.5-0.2-1.1-0.4c-0.6-0.1-0.6-0.1-1.2-0.2
				c-0.6-0.1-0.6-0.1-1.1-0.3c-0.6-0.1-0.6-0.2-1.1-0.4c-0.6-0.1-0.6,0-1.2-0.2c-0.4-0.1-0.8-0.3-1.2-0.4s-0.8-0.2-1.2-0.3
				c-0.4-0.1-0.8-0.1-1.2-0.2s-0.8-0.2-1.2-0.3c-0.4-0.1-0.8-0.1-1.2-0.2s-0.8,0-1.3-0.1c-0.4-0.1-0.8-0.2-1.2-0.3
				c-0.4-0.1-0.8-0.1-1.2-0.2s-0.8-0.1-1.2-0.1s-0.8-0.1-1.2-0.2c-0.4,0-0.8,0-1.3,0c-0.4,0-0.8,0-1.3,0c-0.4,0-0.8-0.1-1.2-0.1
				s-0.8-0.1-1.3-0.1c-0.4,0-0.8-0.1-1.3-0.1c-0.4,0-0.8,0.1-1.3,0.1s-0.8,0-1.3,0c-0.4,0-0.8-0.1-1.3-0.1s-0.8,0-1.3,0.1
				c-0.4,0-0.8,0.1-1.3,0.1s-0.8,0-1.3,0.1c-0.4,0-0.8-0.1-1.3,0c-0.4,0-0.8,0.1-1.2,0.2c-0.4,0-0.8,0-1.3,0c-0.4,0-0.8,0.2-1.2,0.2
				s-0.8,0-1.3,0.1c-0.4,0.1-0.8,0.2-1.2,0.2c-0.4,0.1-0.8,0.2-1.2,0.2c-0.4,0.1-0.8,0.1-1.2,0.2s-0.8,0.1-1.2,0.2s-0.8,0.1-1.2,0.2
				s-0.8,0.2-1.2,0.3c-0.4,0.1-0.8,0.1-1.2,0.2s-0.8,0.2-1.2,0.3c-0.4,0.1-0.8,0.2-1.2,0.3c-0.6,0.2-0.6,0.1-1.2,0.3
				c-0.6,0.2-0.6,0.1-1.2,0.3c-0.6,0.2-0.6,0.2-1.2,0.4c-0.6,0.2-0.6,0.1-1.2,0.2c-0.6,0.2-0.6,0.2-1.2,0.4
				c-0.6,0.2-0.6,0.2-1.2,0.3c-0.6,0.2-0.6,0.1-1.2,0.3c-0.6,0.2-0.6,0.1-1.2,0.3c-0.4,0.1-0.8,0.1-1.2,0.2s-0.8,0.2-1.2,0.2
				c-0.4,0.1-0.8,0.2-1.2,0.2c-0.4,0.1-0.8,0.1-1.2,0.2c-0.4,0.1-0.8,0.1-1.2,0.2c-0.4,0-0.8,0.1-1.2,0.2c-0.4,0-0.8,0-1.2,0
				c-0.4,0-0.8,0.1-1.2,0.1c-0.4,0-0.8,0-1.2,0c-0.4,0-0.8-0.1-1.2-0.1c-0.4,0-0.8,0-1.2,0c-0.4,0-0.8-0.1-1.2-0.2
				c-0.4,0-0.8-0.1-1.2-0.1c-0.4-0.1-0.8-0.1-1.2-0.1c-0.4-0.1-0.8-0.2-1.2-0.3c-0.4-0.1-0.8-0.1-1.2-0.2c-0.4-0.1-0.8-0.3-1.2-0.4
				c-0.4-0.1-0.8-0.2-1.2-0.3c-0.4-0.1-0.8-0.3-1.2-0.4c-0.4-0.1-0.6-0.5-0.5-0.9s0.6-0.6,0.9-0.4c0.4,0.1,0.8,0.2,1.2,0.4
				c0.4,0.1,0.8,0.3,1.2,0.4c0.4,0.1,0.8,0.2,1.2,0.3c0.4,0.1,0.8,0.3,1.2,0.4c0.4,0.1,0.8,0.2,1.2,0.3c0.4,0.1,0.8,0.1,1.3,0.2
				c0.4,0.1,0.8,0.1,1.3,0.2c0.4,0,0.9,0,1.3,0s0.8,0.1,1.3,0.1c0.4,0,0.8,0,1.3,0c0.4,0,0.8,0.1,1.3,0.1c0.4,0,0.8-0.1,1.3-0.1
				c0.4,0,0.8,0,1.3,0c0.4,0,0.8-0.1,1.3-0.1c0.4-0.1,0.8-0.2,1.2-0.3c0.4-0.1,0.9,0,1.3-0.1s0.8-0.2,1.2-0.3
				c0.4-0.1,0.8-0.2,1.2-0.3c0.6-0.2,0.6-0.2,1.2-0.3c0.6-0.2,0.6-0.1,1.2-0.2c0.6-0.2,0.6-0.2,1.2-0.4c0.6-0.2,0.6-0.1,1.2-0.3
				c0.6-0.2,0.6-0.2,1.2-0.4c0.6-0.2,0.6-0.1,1.2-0.2c0.6-0.2,0.6-0.1,1.2-0.3s0.6-0.2,1.2-0.3c0.4-0.1,0.8-0.2,1.2-0.3
				c0.4-0.1,0.8-0.2,1.2-0.3c0.4-0.1,0.8-0.2,1.2-0.3c0.4-0.1,0.8-0.1,1.3-0.2c0.4-0.1,0.8-0.1,1.3-0.2c0.4-0.1,0.8-0.2,1.2-0.3
				c0.4-0.1,0.8-0.1,1.3-0.2c0.4-0.1,0.8-0.2,1.3-0.2c0.4-0.1,0.8-0.1,1.3-0.1c0.4-0.1,0.8-0.1,1.3-0.2c0.4,0,0.8-0.1,1.3-0.1
				c0.4,0,0.8,0,1.3-0.1c0.4,0,0.8-0.2,1.3-0.2c0.4,0,0.9,0,1.3,0c0.4,0,0.8-0.1,1.3-0.1c0.4,0,0.8,0,1.3,0c0.4,0,0.9,0,1.3,0
				s0.8,0,1.3,0c0.4,0,0.8,0,1.3,0c0.4,0,0.8,0.1,1.3,0.1c0.4,0,0.8,0,1.3,0c0.4,0,0.8,0.1,1.3,0.1c0.4,0,0.8,0.1,1.3,0.1
				c0.4,0,0.9,0,1.3,0c0.4,0,0.8,0.1,1.3,0.2c0.4,0,0.8,0,1.3,0.1c0.4,0,0.8,0.1,1.3,0.2c0.4,0.1,0.8,0.1,1.3,0.2
				c0.4,0.1,0.8,0.1,1.3,0.2c0.4,0.1,0.8,0.1,1.3,0.2c0.4,0.1,0.8,0.1,1.3,0.2c0.4,0.1,0.8,0.2,1.2,0.3c0.4,0.1,0.8,0.1,1.3,0.2
				c0.4,0.1,0.8,0.2,1.2,0.3c0.4,0.1,0.9,0.1,1.3,0.2c0.6,0.1,0.5,0.3,1.1,0.4s0.6,0.1,1.2,0.2c0.6,0.1,0.6,0.2,1.1,0.3
				c0.6,0.1,0.6,0.2,1.1,0.3c0.6,0.1,0.6,0.1,1.2,0.2c0.4,0.1,0.8,0.2,1.2,0.3c0.4,0.1,0.8,0.2,1.2,0.3c0.4,0.1,0.8,0.1,1.2,0.1
				c0.4,0.1,0.8,0.2,1.2,0.3c0.4,0.1,0.8,0.1,1.2,0.2s0.8,0.1,1.2,0.2s0.8,0.1,1.2,0.1s0.8,0.1,1.2,0.1s0.8,0,1.2,0.1
				c0.4,0,0.8,0,1.3,0c0.4,0,0.8,0.1,1.2,0.1s0.8,0,1.3,0.1c0.4,0,0.8-0.1,1.3-0.1c0.4,0,0.8,0.1,1.3,0.1c0.4,0,0.8-0.1,1.2-0.1
				s0.8,0,1.3,0c0.4,0,0.8-0.1,1.2-0.1s0.8-0.1,1.2-0.1s0.8,0,1.2-0.1c0.4,0,0.8-0.2,1.2-0.2c0.4-0.1,0.8,0,1.3-0.1
				c0.4-0.1,0.8-0.1,1.2-0.2s0.8-0.2,1.2-0.3c0.4-0.1,0.8-0.2,1.2-0.3c0.4-0.1,0.8-0.1,1.2-0.2s0.8-0.2,1.2-0.3
				c0.4-0.1,0.8-0.2,1.2-0.3c0.4-0.1,0.8-0.2,1.2-0.3c0.3-0.1,0.3-0.1,0.6-0.2c0.4-0.1,0.8-0.2,1.2-0.3c0.4-0.1,0.8-0.2,1.2-0.3
				c0.4-0.1,0.8-0.2,1.2-0.3c0.4-0.1,0.8-0.2,1.2-0.3c0.4-0.1,0.8-0.2,1.2-0.3c0.4-0.1,0.8-0.2,1.2-0.3c0.4-0.1,0.8-0.1,1.3-0.2
				c0.4-0.1,0.8-0.3,1.2-0.3c0.4-0.1,0.9,0,1.3-0.1c0.4-0.1,0.8-0.2,1.2-0.3c0.4-0.1,0.8-0.1,1.3-0.1c0.4,0,0.8,0,1.3-0.1
				c0.4,0,0.8-0.1,1.3-0.1c0.4,0,0.8,0,1.3-0.1c0.4,0,0.8-0.1,1.3-0.1c0.4,0,0.8,0,1.3,0c0.4,0,0.8,0,1.3,0c0.4,0,0.8,0,1.3,0
				c0.4,0,0.8,0,1.3,0c0.4,0,0.8,0.1,1.3,0.1c0.4,0,0.8,0.1,1.3,0.1c0.4,0,0.8,0.1,1.3,0.1c0.4,0,0.8,0,1.3,0
				c0.4,0.1,0.8,0.1,1.3,0.2c0.4,0.1,0.8,0.2,1.2,0.2c0.4,0.1,0.8,0.2,1.2,0.3c0.4,0.1,0.8,0.1,1.2,0.2c0.4,0.1,0.8,0.1,1.2,0.2
				c0.4,0.1,0.8,0.3,1.2,0.4c0.4,0.1,0.8,0.3,1.2,0.4c0.4,0.1,0.8,0.2,1.2,0.3c0.4,0.1,0.8,0.3,1.2,0.4c0.6,0.2,0.6,0.1,1.2,0.3
				c0.6,0.2,0.6,0.2,1.1,0.4c0.6,0.2,0.6,0.2,1.1,0.4c0.6,0.2,0.6,0.2,1.1,0.4c0.6,0.2,0.5,0.3,1.1,0.5s0.6,0.2,1.1,0.4
				c0.6,0.2,0.6,0.2,1.1,0.4c0.6,0.2,0.6,0.1,1.2,0.3c0.6,0.2,0.6,0.2,1.1,0.4c0.6,0.2,0.5,0.3,1.1,0.5c0.4,0.1,0.6,0.5,0.5,0.9
				C276.2,88,275.9,88.1,275.6,88.1z"/>
		</g>
	</g>
</g>
</svg>
