<?xml version="1.0" encoding="utf-8"?>
<!-- Generator: Adobe Illustrator 21.1.0, SVG Export Plug-In . SVG Version: 6.00 Build 0)  -->
<svg version="1.1" id="Layer_1" xmlns="http://www.w3.org/2000/svg" xmlns:xlink="http://www.w3.org/1999/xlink" x="0px" y="0px"
	 viewBox="0 0 20.7 20.3" style="enable-background:new 0 0 20.7 20.3;" xml:space="preserve">
<style type="text/css">
	.st0{fill:#E3202C;}
</style>
<path class="st0" d="M13.1,1.3L13.1,1.3c0.7,0.8,1.7,1.3,2.7,1.3h0c2.3,0,3.9,2.1,3.4,4.3l0,0c-0.2,1,0,2.1,0.7,3l0,0
	c1.4,1.8,0.8,4.4-1.2,5.3l0,0c-1,0.5-1.7,1.3-1.9,2.4v0c-0.5,2.2-2.9,3.4-4.9,2.4l0,0c-1-0.5-2.1-0.5-3,0l0,0c-2,1-4.4-0.2-4.9-2.4
	l0,0c-0.2-1-0.9-1.9-1.9-2.4l0,0c-2-1-2.6-3.6-1.2-5.3l0,0c0.7-0.8,0.9-1.9,0.7-3l0,0C0.9,4.7,2.6,2.6,4.9,2.6h0
	c1.1,0,2.1-0.5,2.7-1.3l0,0C9-0.4,11.7-0.4,13.1,1.3z"/>
</svg>
