<?xml version="1.0" encoding="utf-8"?>
<!-- Generator: Adobe Illustrator 21.1.0, SVG Export Plug-In . SVG Version: 6.00 Build 0)  -->
<svg version="1.1" id="Layer_1" xmlns="http://www.w3.org/2000/svg" xmlns:xlink="http://www.w3.org/1999/xlink" x="0px" y="0px"
	 viewBox="0 0 158.3 188.9" style="enable-background:new 0 0 158.3 188.9;" xml:space="preserve">
<style type="text/css">
	.st0{fill:#2C77A0;}
	.st1{fill:none;stroke:#E5DAC0;stroke-width:3;stroke-linecap:round;stroke-miterlimit:10;}
</style>
<path class="st0" d="M154.1,176.7c0-2.9,1.7-5.3,4.2-6.3v-10.6c-2.5-1-4.2-3.5-4.2-6.3c0-2.9,1.7-5.3,4.2-6.3v-10.6
	c-2.5-1-4.2-3.5-4.2-6.3c0-2.9,1.7-5.3,4.2-6.3v-10.6c-2.5-1-4.2-3.5-4.2-6.3c0-2.9,1.7-5.3,4.2-6.3V90c-2.5-1-4.2-3.5-4.2-6.3
	c0-2.9,1.7-5.3,4.2-6.3V66.8c-2.5-1-4.2-3.5-4.2-6.3c0-2.9,1.7-5.3,4.2-6.3V43.6c-2.5-1-4.2-3.5-4.2-6.3c0-2.9,1.7-5.3,4.2-6.3V20.3
	c-2.5-1-4.2-3.5-4.2-6.3c0-2.9,1.7-5.3,4.2-6.3V0h-6.5c-1,2.7-3.5,4.6-6.5,4.6s-5.5-1.9-6.5-4.6h-9c-1,2.7-3.5,4.6-6.5,4.6
	S118,2.7,117,0h-9c-1,2.7-3.5,4.6-6.5,4.6S96,2.7,95,0h-9c-1,2.7-3.5,4.6-6.5,4.6S74,2.7,73,0h-9c-1,2.7-3.5,4.6-6.5,4.6
	S52,2.7,51,0h-9c-1,2.7-3.5,4.6-6.5,4.6S30,2.7,29,0h-9c-1,2.7-3.5,4.6-6.5,4.6S8,2.7,7,0H0v7.6c2.5,1,4.3,3.5,4.3,6.4
	S2.5,19.4,0,20.4v10.5c2.5,1,4.3,3.5,4.3,6.4c0,2.9-1.8,5.4-4.3,6.4v10.5c2.5,1,4.3,3.5,4.3,6.4S2.5,66,0,67v10.5
	c2.5,1,4.3,3.5,4.3,6.4S2.5,89.3,0,90.3v10.5c2.5,1,4.3,3.5,4.3,6.4s-1.8,5.4-4.3,6.4v10.5c2.5,1,4.3,3.5,4.3,6.4s-1.8,5.4-4.3,6.4
	V147c2.5,1,4.3,3.5,4.3,6.4s-1.8,5.4-4.3,6.4v10.5c2.5,1,4.3,3.5,4.3,6.4s-1.8,5.4-4.3,6.4v5.8h7.5c1-2.7,3.5-4.6,6.5-4.6
	s5.5,1.9,6.5,4.6h9c1-2.7,3.5-4.6,6.5-4.6s5.5,1.9,6.5,4.6h9c1-2.7,3.5-4.6,6.5-4.6s5.5,1.9,6.5,4.6h9c1-2.7,3.5-4.6,6.5-4.6
	s5.5,1.9,6.5,4.6h9c1-2.7,3.5-4.6,6.5-4.6s5.5,1.9,6.5,4.6h9c1-2.7,3.5-4.6,6.5-4.6s5.5,1.9,6.5,4.6h9c1-2.7,3.5-4.6,6.5-4.6
	s5.5,1.9,6.5,4.6h6.5V183C155.8,182,154.1,179.5,154.1,176.7z"/>
<rect x="17.7" y="16.3" class="st1" width="122.8" height="156.2"/>
</svg>
